<?xml version="1.0" standalone="no"?>
 <!DOCTYPE svg PUBLIC "-//W3C//DTD SVG 1.1//EN" 
 "http://www.w3.org/Graphics/SVG/1.1/DTD/svg11.dtd"> 
<svg
  xmlns:svg="http://www.w3.org/2000/svg"
  xmlns="http://www.w3.org/2000/svg"
  xmlns:xlink="http://www.w3.org/1999/xlink"
  xmlns:inkscape="http://www.inkscape.org/namespaces/inkscape"
  version="1.1"
  width="5.3086mm" height="10.0584mm" viewBox="0.0000 0.0000 5.3086 10.0584">
<title>SVG Image created as 0603,1.5MΩ_unit1.svg date 2026-08-07T01:18:43 </title>
  <desc>Image generated by Eeschema-SVG </desc>
<g style="fill:#000000; fill-opacity:1.0000;stroke:#000000; stroke-opacity:1.0000;
stroke-linecap:round; stroke-linejoin:round;"
 transform="translate(0 0) scale(1 1)">
</g>
<g style="fill:none; 
stroke:#840000; stroke-width:0.2540; stroke-opacity:1; 
stroke-linecap:round; stroke-linejoin:round;">
<rect x="0.574600" y="2.489200" width="2.032000" height="5.080000" rx="0.000000" />
</g>
<g style="fill:none; 
stroke:#840000; stroke-width:0.1524; stroke-opacity:1; 
stroke-linecap:round; stroke-linejoin:round;">
<path d="M1.5906 2.4892
L1.5906 1.2192
" />
<path d="M1.5906 7.5692
L1.5906 8.8392
" />
</g>
<g style="fill:none; 
stroke:#006464; stroke-width:0.1524; stroke-opacity:1; 
stroke-linecap:round; stroke-linejoin:round;">
<text x="3.3686" y="5.6642"
textLength="2.5618" font-size="1.6933" lengthAdjust="spacingAndGlyphs"
text-anchor="start" opacity="0" stroke-opacity="0">R?</text>
<g class="stroked-text"><desc>R?</desc>
<path d="M4.4968 5.6087
L4.0735 5.0040
" />
<path d="M3.7711 5.6087
L3.7711 4.3387
" />
<path d="M3.7711 4.3387
L4.2549 4.3387
" />
<path d="M4.2549 4.3387
L4.3759 4.3992
" />
<path d="M4.3759 4.3992
L4.4364 4.4597
" />
<path d="M4.4364 4.4597
L4.4968 4.5806
" />
<path d="M4.4968 4.5806
L4.4968 4.7621
" />
<path d="M4.4968 4.7621
L4.4364 4.8830
" />
<path d="M4.4364 4.8830
L4.3759 4.9435
" />
<path d="M4.3759 4.9435
L4.2549 5.0040
" />
<path d="M4.2549 5.0040
L3.7711 5.0040
" />
<path d="M5.2226 5.4878
L5.2830 5.5483
" />
<path d="M5.2830 5.5483
L5.2226 5.6087
" />
<path d="M5.2226 5.6087
L5.1621 5.5483
" />
<path d="M5.1621 5.5483
L5.2226 5.4878
" />
<path d="M5.2226 5.4878
L5.2226 5.6087
" />
<path d="M4.9807 4.3992
L5.1016 4.3387
" />
<path d="M5.1016 4.3387
L5.4040 4.3387
" />
<path d="M5.4040 4.3387
L5.5249 4.3992
" />
<path d="M5.5249 4.3992
L5.5854 4.5202
" />
<path d="M5.5854 4.5202
L5.5854 4.6411
" />
<path d="M5.5854 4.6411
L5.5249 4.7621
" />
<path d="M5.5249 4.7621
L5.4645 4.8225
" />
<path d="M5.4645 4.8225
L5.3435 4.8830
" />
<path d="M5.3435 4.8830
L5.2830 4.9435
" />
<path d="M5.2830 4.9435
L5.2226 5.0644
" />
<path d="M5.2226 5.0644
L5.2226 5.1249
" />
</g><g transform="rotate(-90.000000 1.5906 5.0292)">
<text x="1.5906" y="5.4292"
textLength="4.0306" font-size="1.0666" lengthAdjust="spacingAndGlyphs"
text-anchor="middle" opacity="0" stroke-opacity="0">1.5MΩ</text>
</g>
<g class="stroked-text"><desc>1.5MΩ</desc>
<path d="M1.9526 6.2863
L1.9526 6.7435
" />
<path d="M1.9526 6.5149
L1.1526 6.5149
" />
<path d="M1.1526 6.5149
L1.2669 6.5911
" />
<path d="M1.2669 6.5911
L1.3431 6.6673
" />
<path d="M1.3431 6.6673
L1.3812 6.7435
" />
<path d="M1.8765 5.9435
L1.9146 5.9054
" />
<path d="M1.9146 5.9054
L1.9526 5.9435
" />
<path d="M1.9526 5.9435
L1.9146 5.9816
" />
<path d="M1.9146 5.9816
L1.8765 5.9435
" />
<path d="M1.8765 5.9435
L1.9526 5.9435
" />
<path d="M1.1526 5.1815
L1.1526 5.5625
" />
<path d="M1.1526 5.5625
L1.5336 5.6006
" />
<path d="M1.5336 5.6006
L1.4955 5.5625
" />
<path d="M1.4955 5.5625
L1.4574 5.4863
" />
<path d="M1.4574 5.4863
L1.4574 5.2958
" />
<path d="M1.4574 5.2958
L1.4955 5.2196
" />
<path d="M1.4955 5.2196
L1.5336 5.1815
" />
<path d="M1.5336 5.1815
L1.6098 5.1434
" />
<path d="M1.6098 5.1434
L1.8003 5.1434
" />
<path d="M1.8003 5.1434
L1.8765 5.1815
" />
<path d="M1.8765 5.1815
L1.9146 5.2196
" />
<path d="M1.9146 5.2196
L1.9526 5.2958
" />
<path d="M1.9526 5.2958
L1.9526 5.4863
" />
<path d="M1.9526 5.4863
L1.9146 5.5625
" />
<path d="M1.9146 5.5625
L1.8765 5.6006
" />
<path d="M1.9526 4.8006
L1.1526 4.8006
" />
<path d="M1.1526 4.8006
L1.7241 4.5339
" />
<path d="M1.7241 4.5339
L1.1526 4.2672
" />
<path d="M1.1526 4.2672
L1.9526 4.2672
" />
<path d="M1.9526 3.9244
L1.9526 3.7339
" />
<path d="M1.9526 3.7339
L1.8003 3.7339
" />
<path d="M1.8003 3.7339
L1.7622 3.8101
" />
<path d="M1.7622 3.8101
L1.6860 3.8863
" />
<path d="M1.6860 3.8863
L1.5717 3.9244
" />
<path d="M1.5717 3.9244
L1.3812 3.9244
" />
<path d="M1.3812 3.9244
L1.2669 3.8863
" />
<path d="M1.2669 3.8863
L1.1907 3.8101
" />
<path d="M1.1907 3.8101
L1.1526 3.6958
" />
<path d="M1.1526 3.6958
L1.1526 3.5434
" />
<path d="M1.1526 3.5434
L1.1907 3.4291
" />
<path d="M1.1907 3.4291
L1.2669 3.3529
" />
<path d="M1.2669 3.3529
L1.3812 3.3148
" />
<path d="M1.3812 3.3148
L1.5717 3.3148
" />
<path d="M1.5717 3.3148
L1.6860 3.3529
" />
<path d="M1.6860 3.3529
L1.7622 3.4291
" />
<path d="M1.7622 3.4291
L1.8003 3.5053
" />
<path d="M1.8003 3.5053
L1.9526 3.5053
" />
<path d="M1.9526 3.5053
L1.9526 3.3148
" />
</g></g> 
</svg>
