<?xml version="1.0" standalone="no"?>
 <!DOCTYPE svg PUBLIC "-//W3C//DTD SVG 1.1//EN" 
 "http://www.w3.org/Graphics/SVG/1.1/DTD/svg11.dtd"> 
<svg
  xmlns:svg="http://www.w3.org/2000/svg"
  xmlns="http://www.w3.org/2000/svg"
  xmlns:xlink="http://www.w3.org/1999/xlink"
  xmlns:inkscape="http://www.inkscape.org/namespaces/inkscape"
  version="1.1"
  width="18.5928mm" height="27.3304mm" viewBox="0.0000 0.0000 18.5928 27.3304">
<title>SVG Image created as FDG6303N_unit1.svg date 2026-08-07T01:18:44 </title>
  <desc>Image generated by Eeschema-SVG </desc>
<g style="fill:#000000; fill-opacity:1.0000;stroke:#000000; stroke-opacity:1.0000;
stroke-linecap:round; stroke-linejoin:round;"
 transform="translate(0 0) scale(1 1)">
</g>
<g style="fill:#FFFFC2; fill-opacity:1.0000; stroke:none;">
<rect x="5.020600" y="6.045200" width="5.080000" height="15.240000" rx="0.000000" />
</g>
<g style="fill:none; 
stroke:#840000; stroke-width:0.1524; stroke-opacity:1; 
stroke-linecap:round; stroke-linejoin:round;">
<rect x="5.020600" y="6.045200" width="5.080000" height="15.240000" rx="0.000000" />
<path d="M5.0206 8.5852
L2.4806 8.5852
" />
</g>
<g style="fill:none; 
stroke:#006464; stroke-width:0.1524; stroke-opacity:1; 
stroke-linecap:round; stroke-linejoin:round;">
<text x="3.7506" y="8.3312"
textLength="2.6222" font-size="1.6933" lengthAdjust="spacingAndGlyphs"
text-anchor="middle" opacity="0" stroke-opacity="0">S2</text>
<g class="stroked-text"><desc>S2</desc>
<path d="M2.7830 8.1073
L2.9644 8.1677
" />
<path d="M2.9644 8.1677
L3.2668 8.1677
" />
<path d="M3.2668 8.1677
L3.3877 8.1073
" />
<path d="M3.3877 8.1073
L3.4482 8.0468
" />
<path d="M3.4482 8.0468
L3.5087 7.9258
" />
<path d="M3.5087 7.9258
L3.5087 7.8049
" />
<path d="M3.5087 7.8049
L3.4482 7.6839
" />
<path d="M3.4482 7.6839
L3.3877 7.6234
" />
<path d="M3.3877 7.6234
L3.2668 7.5630
" />
<path d="M3.2668 7.5630
L3.0249 7.5025
" />
<path d="M3.0249 7.5025
L2.9039 7.4420
" />
<path d="M2.9039 7.4420
L2.8434 7.3815
" />
<path d="M2.8434 7.3815
L2.7830 7.2606
" />
<path d="M2.7830 7.2606
L2.7830 7.1396
" />
<path d="M2.7830 7.1396
L2.8434 7.0187
" />
<path d="M2.8434 7.0187
L2.9039 6.9582
" />
<path d="M2.9039 6.9582
L3.0249 6.8977
" />
<path d="M3.0249 6.8977
L3.3272 6.8977
" />
<path d="M3.3272 6.8977
L3.5087 6.9582
" />
<path d="M3.9925 7.0187
L4.0529 6.9582
" />
<path d="M4.0529 6.9582
L4.1739 6.8977
" />
<path d="M4.1739 6.8977
L4.4763 6.8977
" />
<path d="M4.4763 6.8977
L4.5972 6.9582
" />
<path d="M4.5972 6.9582
L4.6577 7.0187
" />
<path d="M4.6577 7.0187
L4.7182 7.1396
" />
<path d="M4.7182 7.1396
L4.7182 7.2606
" />
<path d="M4.7182 7.2606
L4.6577 7.4420
" />
<path d="M4.6577 7.4420
L3.9320 8.1677
" />
<path d="M3.9320 8.1677
L4.7182 8.1677
" />
</g></g>
<g style="fill:none; 
stroke:#A90000; stroke-width:0.1524; stroke-opacity:1; 
stroke-linecap:round; stroke-linejoin:round;">
<text x="3.7506" y="10.1092"
textLength="1.4127" font-size="1.6933" lengthAdjust="spacingAndGlyphs"
text-anchor="middle" opacity="0" stroke-opacity="0">1</text>
<g class="stroked-text"><desc>1</desc>
<path d="M4.1135 10.1616
L3.3878 10.1616
" />
<path d="M3.7506 10.1616
L3.7506 8.8916
" />
<path d="M3.7506 8.8916
L3.6297 9.0731
" />
<path d="M3.6297 9.0731
L3.5087 9.1940
" />
<path d="M3.5087 9.1940
L3.3878 9.2545
" />
</g></g>
<g style="fill:none; 
stroke:#840000; stroke-width:0.1524; stroke-opacity:1; 
stroke-linecap:round; stroke-linejoin:round;">
<path d="M5.0206 13.6652
L2.4806 13.6652
" />
</g>
<g style="fill:none; 
stroke:#006464; stroke-width:0.1524; stroke-opacity:1; 
stroke-linecap:round; stroke-linejoin:round;">
<text x="3.7506" y="13.4112"
textLength="2.6827" font-size="1.6933" lengthAdjust="spacingAndGlyphs"
text-anchor="middle" opacity="0" stroke-opacity="0">G2</text>
<g class="stroked-text"><desc>G2</desc>
<path d="M3.4785 12.0382
L3.3575 11.9777
" />
<path d="M3.3575 11.9777
L3.1761 11.9777
" />
<path d="M3.1761 11.9777
L2.9947 12.0382
" />
<path d="M2.9947 12.0382
L2.8737 12.1592
" />
<path d="M2.8737 12.1592
L2.8132 12.2801
" />
<path d="M2.8132 12.2801
L2.7528 12.5220
" />
<path d="M2.7528 12.5220
L2.7528 12.7034
" />
<path d="M2.7528 12.7034
L2.8132 12.9453
" />
<path d="M2.8132 12.9453
L2.8737 13.0663
" />
<path d="M2.8737 13.0663
L2.9947 13.1873
" />
<path d="M2.9947 13.1873
L3.1761 13.2477
" />
<path d="M3.1761 13.2477
L3.2970 13.2477
" />
<path d="M3.2970 13.2477
L3.4785 13.1873
" />
<path d="M3.4785 13.1873
L3.5389 13.1268
" />
<path d="M3.5389 13.1268
L3.5389 12.7034
" />
<path d="M3.5389 12.7034
L3.2970 12.7034
" />
<path d="M4.0228 12.0987
L4.0832 12.0382
" />
<path d="M4.0832 12.0382
L4.2042 11.9777
" />
<path d="M4.2042 11.9777
L4.5066 11.9777
" />
<path d="M4.5066 11.9777
L4.6275 12.0382
" />
<path d="M4.6275 12.0382
L4.6880 12.0987
" />
<path d="M4.6880 12.0987
L4.7485 12.2196
" />
<path d="M4.7485 12.2196
L4.7485 12.3406
" />
<path d="M4.7485 12.3406
L4.6880 12.5220
" />
<path d="M4.6880 12.5220
L3.9623 13.2477
" />
<path d="M3.9623 13.2477
L4.7485 13.2477
" />
</g></g>
<g style="fill:none; 
stroke:#A90000; stroke-width:0.1524; stroke-opacity:1; 
stroke-linecap:round; stroke-linejoin:round;">
<text x="3.7506" y="15.1892"
textLength="1.4127" font-size="1.6933" lengthAdjust="spacingAndGlyphs"
text-anchor="middle" opacity="0" stroke-opacity="0">2</text>
<g class="stroked-text"><desc>2</desc>
<path d="M3.3878 14.0926
L3.4482 14.0321
" />
<path d="M3.4482 14.0321
L3.5692 13.9716
" />
<path d="M3.5692 13.9716
L3.8716 13.9716
" />
<path d="M3.8716 13.9716
L3.9925 14.0321
" />
<path d="M3.9925 14.0321
L4.0530 14.0926
" />
<path d="M4.0530 14.0926
L4.1135 14.2135
" />
<path d="M4.1135 14.2135
L4.1135 14.3345
" />
<path d="M4.1135 14.3345
L4.0530 14.5159
" />
<path d="M4.0530 14.5159
L3.3273 15.2416
" />
<path d="M3.3273 15.2416
L4.1135 15.2416
" />
</g></g>
<g style="fill:none; 
stroke:#840000; stroke-width:0.1524; stroke-opacity:1; 
stroke-linecap:round; stroke-linejoin:round;">
<path d="M5.0206 18.7452
L2.4806 18.7452
" />
</g>
<g style="fill:none; 
stroke:#006464; stroke-width:0.1524; stroke-opacity:1; 
stroke-linecap:round; stroke-linejoin:round;">
<text x="3.7506" y="18.4912"
textLength="2.6827" font-size="1.6933" lengthAdjust="spacingAndGlyphs"
text-anchor="middle" opacity="0" stroke-opacity="0">D1</text>
<g class="stroked-text"><desc>D1</desc>
<path d="M2.8132 18.3277
L2.8132 17.0577
" />
<path d="M2.8132 17.0577
L3.1156 17.0577
" />
<path d="M3.1156 17.0577
L3.2970 17.1182
" />
<path d="M3.2970 17.1182
L3.4180 17.2392
" />
<path d="M3.4180 17.2392
L3.4785 17.3601
" />
<path d="M3.4785 17.3601
L3.5389 17.6020
" />
<path d="M3.5389 17.6020
L3.5389 17.7834
" />
<path d="M3.5389 17.7834
L3.4785 18.0253
" />
<path d="M3.4785 18.0253
L3.4180 18.1463
" />
<path d="M3.4180 18.1463
L3.2970 18.2673
" />
<path d="M3.2970 18.2673
L3.1156 18.3277
" />
<path d="M3.1156 18.3277
L2.8132 18.3277
" />
<path d="M4.7485 18.3277
L4.0228 18.3277
" />
<path d="M4.3856 18.3277
L4.3856 17.0577
" />
<path d="M4.3856 17.0577
L4.2647 17.2392
" />
<path d="M4.2647 17.2392
L4.1437 17.3601
" />
<path d="M4.1437 17.3601
L4.0228 17.4206
" />
</g></g>
<g style="fill:none; 
stroke:#A90000; stroke-width:0.1524; stroke-opacity:1; 
stroke-linecap:round; stroke-linejoin:round;">
<text x="3.7506" y="20.2692"
textLength="1.4127" font-size="1.6933" lengthAdjust="spacingAndGlyphs"
text-anchor="middle" opacity="0" stroke-opacity="0">3</text>
<g class="stroked-text"><desc>3</desc>
<path d="M3.3273 19.0516
L4.1135 19.0516
" />
<path d="M4.1135 19.0516
L3.6901 19.5354
" />
<path d="M3.6901 19.5354
L3.8716 19.5354
" />
<path d="M3.8716 19.5354
L3.9925 19.5959
" />
<path d="M3.9925 19.5959
L4.0530 19.6564
" />
<path d="M4.0530 19.6564
L4.1135 19.7773
" />
<path d="M4.1135 19.7773
L4.1135 20.0797
" />
<path d="M4.1135 20.0797
L4.0530 20.2007
" />
<path d="M4.0530 20.2007
L3.9925 20.2612
" />
<path d="M3.9925 20.2612
L3.8716 20.3216
" />
<path d="M3.8716 20.3216
L3.5087 20.3216
" />
<path d="M3.5087 20.3216
L3.3878 20.2612
" />
<path d="M3.3878 20.2612
L3.3273 20.2007
" />
</g></g>
<g style="fill:none; 
stroke:#840000; stroke-width:0.1524; stroke-opacity:1; 
stroke-linecap:round; stroke-linejoin:round;">
<path d="M10.1006 18.7452
L12.6406 18.7452
" />
</g>
<g style="fill:none; 
stroke:#006464; stroke-width:0.1524; stroke-opacity:1; 
stroke-linecap:round; stroke-linejoin:round;">
<text x="11.3706" y="18.4912"
textLength="2.6222" font-size="1.6933" lengthAdjust="spacingAndGlyphs"
text-anchor="middle" opacity="0" stroke-opacity="0">S1</text>
<g class="stroked-text"><desc>S1</desc>
<path d="M10.4030 18.2673
L10.5844 18.3277
" />
<path d="M10.5844 18.3277
L10.8868 18.3277
" />
<path d="M10.8868 18.3277
L11.0077 18.2673
" />
<path d="M11.0077 18.2673
L11.0682 18.2068
" />
<path d="M11.0682 18.2068
L11.1287 18.0858
" />
<path d="M11.1287 18.0858
L11.1287 17.9649
" />
<path d="M11.1287 17.9649
L11.0682 17.8439
" />
<path d="M11.0682 17.8439
L11.0077 17.7834
" />
<path d="M11.0077 17.7834
L10.8868 17.7230
" />
<path d="M10.8868 17.7230
L10.6449 17.6625
" />
<path d="M10.6449 17.6625
L10.5239 17.6020
" />
<path d="M10.5239 17.6020
L10.4634 17.5415
" />
<path d="M10.4634 17.5415
L10.4030 17.4206
" />
<path d="M10.4030 17.4206
L10.4030 17.2996
" />
<path d="M10.4030 17.2996
L10.4634 17.1787
" />
<path d="M10.4634 17.1787
L10.5239 17.1182
" />
<path d="M10.5239 17.1182
L10.6449 17.0577
" />
<path d="M10.6449 17.0577
L10.9472 17.0577
" />
<path d="M10.9472 17.0577
L11.1287 17.1182
" />
<path d="M12.3382 18.3277
L11.6125 18.3277
" />
<path d="M11.9753 18.3277
L11.9753 17.0577
" />
<path d="M11.9753 17.0577
L11.8544 17.2392
" />
<path d="M11.8544 17.2392
L11.7334 17.3601
" />
<path d="M11.7334 17.3601
L11.6125 17.4206
" />
</g></g>
<g style="fill:none; 
stroke:#A90000; stroke-width:0.1524; stroke-opacity:1; 
stroke-linecap:round; stroke-linejoin:round;">
<text x="11.3706" y="20.2692"
textLength="1.4127" font-size="1.6933" lengthAdjust="spacingAndGlyphs"
text-anchor="middle" opacity="0" stroke-opacity="0">4</text>
<g class="stroked-text"><desc>4</desc>
<path d="M11.6125 19.4750
L11.6125 20.3216
" />
<path d="M11.3101 18.9912
L11.0078 19.8983
" />
<path d="M11.0078 19.8983
L11.7939 19.8983
" />
</g></g>
<g style="fill:none; 
stroke:#840000; stroke-width:0.1524; stroke-opacity:1; 
stroke-linecap:round; stroke-linejoin:round;">
<path d="M10.1006 13.6652
L12.6406 13.6652
" />
</g>
<g style="fill:none; 
stroke:#006464; stroke-width:0.1524; stroke-opacity:1; 
stroke-linecap:round; stroke-linejoin:round;">
<text x="11.3706" y="13.4112"
textLength="2.6827" font-size="1.6933" lengthAdjust="spacingAndGlyphs"
text-anchor="middle" opacity="0" stroke-opacity="0">G1</text>
<g class="stroked-text"><desc>G1</desc>
<path d="M11.0985 12.0382
L10.9775 11.9777
" />
<path d="M10.9775 11.9777
L10.7961 11.9777
" />
<path d="M10.7961 11.9777
L10.6147 12.0382
" />
<path d="M10.6147 12.0382
L10.4937 12.1592
" />
<path d="M10.4937 12.1592
L10.4332 12.2801
" />
<path d="M10.4332 12.2801
L10.3728 12.5220
" />
<path d="M10.3728 12.5220
L10.3728 12.7034
" />
<path d="M10.3728 12.7034
L10.4332 12.9453
" />
<path d="M10.4332 12.9453
L10.4937 13.0663
" />
<path d="M10.4937 13.0663
L10.6147 13.1873
" />
<path d="M10.6147 13.1873
L10.7961 13.2477
" />
<path d="M10.7961 13.2477
L10.9170 13.2477
" />
<path d="M10.9170 13.2477
L11.0985 13.1873
" />
<path d="M11.0985 13.1873
L11.1589 13.1268
" />
<path d="M11.1589 13.1268
L11.1589 12.7034
" />
<path d="M11.1589 12.7034
L10.9170 12.7034
" />
<path d="M12.3685 13.2477
L11.6428 13.2477
" />
<path d="M12.0056 13.2477
L12.0056 11.9777
" />
<path d="M12.0056 11.9777
L11.8847 12.1592
" />
<path d="M11.8847 12.1592
L11.7637 12.2801
" />
<path d="M11.7637 12.2801
L11.6428 12.3406
" />
</g></g>
<g style="fill:none; 
stroke:#A90000; stroke-width:0.1524; stroke-opacity:1; 
stroke-linecap:round; stroke-linejoin:round;">
<text x="11.3706" y="15.1892"
textLength="1.4127" font-size="1.6933" lengthAdjust="spacingAndGlyphs"
text-anchor="middle" opacity="0" stroke-opacity="0">5</text>
<g class="stroked-text"><desc>5</desc>
<path d="M11.6730 13.9716
L11.0682 13.9716
" />
<path d="M11.0682 13.9716
L11.0078 14.5764
" />
<path d="M11.0078 14.5764
L11.0682 14.5159
" />
<path d="M11.0682 14.5159
L11.1892 14.4554
" />
<path d="M11.1892 14.4554
L11.4916 14.4554
" />
<path d="M11.4916 14.4554
L11.6125 14.5159
" />
<path d="M11.6125 14.5159
L11.6730 14.5764
" />
<path d="M11.6730 14.5764
L11.7335 14.6973
" />
<path d="M11.7335 14.6973
L11.7335 14.9997
" />
<path d="M11.7335 14.9997
L11.6730 15.1207
" />
<path d="M11.6730 15.1207
L11.6125 15.1812
" />
<path d="M11.6125 15.1812
L11.4916 15.2416
" />
<path d="M11.4916 15.2416
L11.1892 15.2416
" />
<path d="M11.1892 15.2416
L11.0682 15.1812
" />
<path d="M11.0682 15.1812
L11.0078 15.1207
" />
</g></g>
<g style="fill:none; 
stroke:#840000; stroke-width:0.1524; stroke-opacity:1; 
stroke-linecap:round; stroke-linejoin:round;">
<path d="M10.1006 8.5852
L12.6406 8.5852
" />
</g>
<g style="fill:none; 
stroke:#006464; stroke-width:0.1524; stroke-opacity:1; 
stroke-linecap:round; stroke-linejoin:round;">
<text x="11.3706" y="8.3312"
textLength="2.6827" font-size="1.6933" lengthAdjust="spacingAndGlyphs"
text-anchor="middle" opacity="0" stroke-opacity="0">D2</text>
<g class="stroked-text"><desc>D2</desc>
<path d="M10.4332 8.1677
L10.4332 6.8977
" />
<path d="M10.4332 6.8977
L10.7356 6.8977
" />
<path d="M10.7356 6.8977
L10.9170 6.9582
" />
<path d="M10.9170 6.9582
L11.0380 7.0792
" />
<path d="M11.0380 7.0792
L11.0985 7.2001
" />
<path d="M11.0985 7.2001
L11.1589 7.4420
" />
<path d="M11.1589 7.4420
L11.1589 7.6234
" />
<path d="M11.1589 7.6234
L11.0985 7.8653
" />
<path d="M11.0985 7.8653
L11.0380 7.9863
" />
<path d="M11.0380 7.9863
L10.9170 8.1073
" />
<path d="M10.9170 8.1073
L10.7356 8.1677
" />
<path d="M10.7356 8.1677
L10.4332 8.1677
" />
<path d="M11.6428 7.0187
L11.7032 6.9582
" />
<path d="M11.7032 6.9582
L11.8242 6.8977
" />
<path d="M11.8242 6.8977
L12.1266 6.8977
" />
<path d="M12.1266 6.8977
L12.2475 6.9582
" />
<path d="M12.2475 6.9582
L12.3080 7.0187
" />
<path d="M12.3080 7.0187
L12.3685 7.1396
" />
<path d="M12.3685 7.1396
L12.3685 7.2606
" />
<path d="M12.3685 7.2606
L12.3080 7.4420
" />
<path d="M12.3080 7.4420
L11.5823 8.1677
" />
<path d="M11.5823 8.1677
L12.3685 8.1677
" />
</g></g>
<g style="fill:none; 
stroke:#A90000; stroke-width:0.1524; stroke-opacity:1; 
stroke-linecap:round; stroke-linejoin:round;">
<text x="11.3706" y="10.1092"
textLength="1.4127" font-size="1.6933" lengthAdjust="spacingAndGlyphs"
text-anchor="middle" opacity="0" stroke-opacity="0">6</text>
<g class="stroked-text"><desc>6</desc>
<path d="M11.6125 8.8916
L11.3706 8.8916
" />
<path d="M11.3706 8.8916
L11.2497 8.9521
" />
<path d="M11.2497 8.9521
L11.1892 9.0126
" />
<path d="M11.1892 9.0126
L11.0682 9.1940
" />
<path d="M11.0682 9.1940
L11.0078 9.4359
" />
<path d="M11.0078 9.4359
L11.0078 9.9197
" />
<path d="M11.0078 9.9197
L11.0682 10.0407
" />
<path d="M11.0682 10.0407
L11.1287 10.1012
" />
<path d="M11.1287 10.1012
L11.2497 10.1616
" />
<path d="M11.2497 10.1616
L11.4916 10.1616
" />
<path d="M11.4916 10.1616
L11.6125 10.1012
" />
<path d="M11.6125 10.1012
L11.6730 10.0407
" />
<path d="M11.6730 10.0407
L11.7335 9.9197
" />
<path d="M11.7335 9.9197
L11.7335 9.6173
" />
<path d="M11.7335 9.6173
L11.6730 9.4964
" />
<path d="M11.6730 9.4964
L11.6125 9.4359
" />
<path d="M11.6125 9.4359
L11.4916 9.3754
" />
<path d="M11.4916 9.3754
L11.2497 9.3754
" />
<path d="M11.2497 9.3754
L11.1287 9.4359
" />
<path d="M11.1287 9.4359
L11.0682 9.4964
" />
<path d="M11.0682 9.4964
L11.0078 9.6173
" />
</g></g>
<g style="fill:none; 
stroke:#006464; stroke-width:0.1524; stroke-opacity:1; 
stroke-linecap:round; stroke-linejoin:round;">
<text x="2.4806" y="4.2672"
textLength="3.0553" font-size="2.0320" lengthAdjust="spacingAndGlyphs"
text-anchor="middle" opacity="0" stroke-opacity="0">Q?</text>
<g class="stroked-text"><desc>Q?</desc>
<path d="M2.4080 4.3474
L2.2629 4.2748
" />
<path d="M2.2629 4.2748
L2.1177 4.1297
" />
<path d="M2.1177 4.1297
L1.9000 3.9119
" />
<path d="M1.9000 3.9119
L1.7549 3.8394
" />
<path d="M1.7549 3.8394
L1.6097 3.8394
" />
<path d="M1.6823 4.2022
L1.5372 4.1297
" />
<path d="M1.5372 4.1297
L1.3920 3.9845
" />
<path d="M1.3920 3.9845
L1.3194 3.6942
" />
<path d="M1.3194 3.6942
L1.3194 3.1862
" />
<path d="M1.3194 3.1862
L1.3920 2.8959
" />
<path d="M1.3920 2.8959
L1.5372 2.7508
" />
<path d="M1.5372 2.7508
L1.6823 2.6782
" />
<path d="M1.6823 2.6782
L1.9726 2.6782
" />
<path d="M1.9726 2.6782
L2.1177 2.7508
" />
<path d="M2.1177 2.7508
L2.2629 2.8959
" />
<path d="M2.2629 2.8959
L2.3354 3.1862
" />
<path d="M2.3354 3.1862
L2.3354 3.6942
" />
<path d="M2.3354 3.6942
L2.2629 3.9845
" />
<path d="M2.2629 3.9845
L2.1177 4.1297
" />
<path d="M2.1177 4.1297
L1.9726 4.2022
" />
<path d="M1.9726 4.2022
L1.6823 4.2022
" />
<path d="M3.2063 4.0571
L3.2789 4.1297
" />
<path d="M3.2789 4.1297
L3.2063 4.2022
" />
<path d="M3.2063 4.2022
L3.1338 4.1297
" />
<path d="M3.1338 4.1297
L3.2063 4.0571
" />
<path d="M3.2063 4.0571
L3.2063 4.2022
" />
<path d="M2.9160 2.7508
L3.0612 2.6782
" />
<path d="M3.0612 2.6782
L3.4240 2.6782
" />
<path d="M3.4240 2.6782
L3.5692 2.7508
" />
<path d="M3.5692 2.7508
L3.6418 2.8959
" />
<path d="M3.6418 2.8959
L3.6418 3.0411
" />
<path d="M3.6418 3.0411
L3.5692 3.1862
" />
<path d="M3.5692 3.1862
L3.4966 3.2588
" />
<path d="M3.4966 3.2588
L3.3515 3.3314
" />
<path d="M3.3515 3.3314
L3.2789 3.4039
" />
<path d="M3.2789 3.4039
L3.2063 3.5491
" />
<path d="M3.2063 3.5491
L3.2063 3.6217
" />
</g><text x="5.0206" y="24.5872"
textLength="11.9089" font-size="2.0320" lengthAdjust="spacingAndGlyphs"
text-anchor="start" opacity="0" stroke-opacity="0">FDG6303N</text>
<g class="stroked-text"><desc>FDG6303N</desc>
<path d="M5.9916 23.7239
L5.4836 23.7239
" />
<path d="M5.4836 24.5222
L5.4836 22.9982
" />
<path d="M5.4836 22.9982
L6.2093 22.9982
" />
<path d="M6.7899 24.5222
L6.7899 22.9982
" />
<path d="M6.7899 22.9982
L7.1528 22.9982
" />
<path d="M7.1528 22.9982
L7.3705 23.0708
" />
<path d="M7.3705 23.0708
L7.5156 23.2159
" />
<path d="M7.5156 23.2159
L7.5882 23.3611
" />
<path d="M7.5882 23.3611
L7.6608 23.6514
" />
<path d="M7.6608 23.6514
L7.6608 23.8691
" />
<path d="M7.6608 23.8691
L7.5882 24.1594
" />
<path d="M7.5882 24.1594
L7.5156 24.3045
" />
<path d="M7.5156 24.3045
L7.3705 24.4497
" />
<path d="M7.3705 24.4497
L7.1528 24.5222
" />
<path d="M7.1528 24.5222
L6.7899 24.5222
" />
<path d="M9.1122 23.0708
L8.9671 22.9982
" />
<path d="M8.9671 22.9982
L8.7493 22.9982
" />
<path d="M8.7493 22.9982
L8.5316 23.0708
" />
<path d="M8.5316 23.0708
L8.3865 23.2159
" />
<path d="M8.3865 23.2159
L8.3139 23.3611
" />
<path d="M8.3139 23.3611
L8.2413 23.6514
" />
<path d="M8.2413 23.6514
L8.2413 23.8691
" />
<path d="M8.2413 23.8691
L8.3139 24.1594
" />
<path d="M8.3139 24.1594
L8.3865 24.3045
" />
<path d="M8.3865 24.3045
L8.5316 24.4497
" />
<path d="M8.5316 24.4497
L8.7493 24.5222
" />
<path d="M8.7493 24.5222
L8.8945 24.5222
" />
<path d="M8.8945 24.5222
L9.1122 24.4497
" />
<path d="M9.1122 24.4497
L9.1848 24.3771
" />
<path d="M9.1848 24.3771
L9.1848 23.8691
" />
<path d="M9.1848 23.8691
L8.8945 23.8691
" />
<path d="M10.4911 22.9982
L10.2008 22.9982
" />
<path d="M10.2008 22.9982
L10.0556 23.0708
" />
<path d="M10.0556 23.0708
L9.9831 23.1434
" />
<path d="M9.9831 23.1434
L9.8379 23.3611
" />
<path d="M9.8379 23.3611
L9.7653 23.6514
" />
<path d="M9.7653 23.6514
L9.7653 24.2319
" />
<path d="M9.7653 24.2319
L9.8379 24.3771
" />
<path d="M9.8379 24.3771
L9.9105 24.4497
" />
<path d="M9.9105 24.4497
L10.0556 24.5222
" />
<path d="M10.0556 24.5222
L10.3459 24.5222
" />
<path d="M10.3459 24.5222
L10.4911 24.4497
" />
<path d="M10.4911 24.4497
L10.5636 24.3771
" />
<path d="M10.5636 24.3771
L10.6362 24.2319
" />
<path d="M10.6362 24.2319
L10.6362 23.8691
" />
<path d="M10.6362 23.8691
L10.5636 23.7239
" />
<path d="M10.5636 23.7239
L10.4911 23.6514
" />
<path d="M10.4911 23.6514
L10.3459 23.5788
" />
<path d="M10.3459 23.5788
L10.0556 23.5788
" />
<path d="M10.0556 23.5788
L9.9105 23.6514
" />
<path d="M9.9105 23.6514
L9.8379 23.7239
" />
<path d="M9.8379 23.7239
L9.7653 23.8691
" />
<path d="M11.1442 22.9982
L12.0876 22.9982
" />
<path d="M12.0876 22.9982
L11.5796 23.5788
" />
<path d="M11.5796 23.5788
L11.7973 23.5788
" />
<path d="M11.7973 23.5788
L11.9425 23.6514
" />
<path d="M11.9425 23.6514
L12.0150 23.7239
" />
<path d="M12.0150 23.7239
L12.0876 23.8691
" />
<path d="M12.0876 23.8691
L12.0876 24.2319
" />
<path d="M12.0876 24.2319
L12.0150 24.3771
" />
<path d="M12.0150 24.3771
L11.9425 24.4497
" />
<path d="M11.9425 24.4497
L11.7973 24.5222
" />
<path d="M11.7973 24.5222
L11.3619 24.5222
" />
<path d="M11.3619 24.5222
L11.2167 24.4497
" />
<path d="M11.2167 24.4497
L11.1442 24.3771
" />
<path d="M13.0310 22.9982
L13.1761 22.9982
" />
<path d="M13.1761 22.9982
L13.3213 23.0708
" />
<path d="M13.3213 23.0708
L13.3939 23.1434
" />
<path d="M13.3939 23.1434
L13.4664 23.2885
" />
<path d="M13.4664 23.2885
L13.5390 23.5788
" />
<path d="M13.5390 23.5788
L13.5390 23.9417
" />
<path d="M13.5390 23.9417
L13.4664 24.2319
" />
<path d="M13.4664 24.2319
L13.3939 24.3771
" />
<path d="M13.3939 24.3771
L13.3213 24.4497
" />
<path d="M13.3213 24.4497
L13.1761 24.5222
" />
<path d="M13.1761 24.5222
L13.0310 24.5222
" />
<path d="M13.0310 24.5222
L12.8859 24.4497
" />
<path d="M12.8859 24.4497
L12.8133 24.3771
" />
<path d="M12.8133 24.3771
L12.7407 24.2319
" />
<path d="M12.7407 24.2319
L12.6681 23.9417
" />
<path d="M12.6681 23.9417
L12.6681 23.5788
" />
<path d="M12.6681 23.5788
L12.7407 23.2885
" />
<path d="M12.7407 23.2885
L12.8133 23.1434
" />
<path d="M12.8133 23.1434
L12.8859 23.0708
" />
<path d="M12.8859 23.0708
L13.0310 22.9982
" />
<path d="M14.0470 22.9982
L14.9904 22.9982
" />
<path d="M14.9904 22.9982
L14.4824 23.5788
" />
<path d="M14.4824 23.5788
L14.7001 23.5788
" />
<path d="M14.7001 23.5788
L14.8453 23.6514
" />
<path d="M14.8453 23.6514
L14.9178 23.7239
" />
<path d="M14.9178 23.7239
L14.9904 23.8691
" />
<path d="M14.9904 23.8691
L14.9904 24.2319
" />
<path d="M14.9904 24.2319
L14.9178 24.3771
" />
<path d="M14.9178 24.3771
L14.8453 24.4497
" />
<path d="M14.8453 24.4497
L14.7001 24.5222
" />
<path d="M14.7001 24.5222
L14.2647 24.5222
" />
<path d="M14.2647 24.5222
L14.1195 24.4497
" />
<path d="M14.1195 24.4497
L14.0470 24.3771
" />
<path d="M15.6435 24.5222
L15.6435 22.9982
" />
<path d="M15.6435 22.9982
L16.5144 24.5222
" />
<path d="M16.5144 24.5222
L16.5144 22.9982
" />
</g></g> 
</svg>
