<?xml version="1.0" standalone="no"?>
 <!DOCTYPE svg PUBLIC "-//W3C//DTD SVG 1.1//EN" 
 "http://www.w3.org/Graphics/SVG/1.1/DTD/svg11.dtd"> 
<svg
  xmlns:svg="http://www.w3.org/2000/svg"
  xmlns="http://www.w3.org/2000/svg"
  xmlns:xlink="http://www.w3.org/1999/xlink"
  xmlns:inkscape="http://www.inkscape.org/namespaces/inkscape"
  version="1.1"
  width="24.4348mm" height="19.2024mm" viewBox="0.0000 0.0000 24.4348 19.2024">
<title>SVG Image created as H11L1M_unit1.svg date 2026-08-07T01:18:44 </title>
  <desc>Image generated by Eeschema-SVG </desc>
<g style="fill:#000000; fill-opacity:1.0000;stroke:#000000; stroke-opacity:1.0000;
stroke-linecap:round; stroke-linejoin:round;"
 transform="translate(0 0) scale(1 1)">
</g>
<g style="fill:#FFFFC2; fill-opacity:1.0000; stroke:none;">
<rect x="4.954000" y="5.791200" width="10.160000" height="7.620000" rx="0.000000" />
<path style="fill:none; 
stroke:#840000; stroke-width:0.1524; stroke-opacity:1; 
stroke-linecap:round; stroke-linejoin:round;fill:none"
d="M 4.9540,7.0612
6.2240,7.0612
6.2240,9.6012
" /> 
<path style="fill:none; 
stroke:#840000; stroke-width:0.1524; stroke-opacity:1; 
stroke-linecap:round; stroke-linejoin:round;fill:none"
d="M 5.5890,10.2362
6.8590,10.2362
" /> 
<path style="fill:none; 
stroke:#840000; stroke-width:0.1524; stroke-opacity:1; 
stroke-linecap:round; stroke-linejoin:round;fill:none"
d="M 6.2240,10.2362
6.2240,12.1412
4.9540,12.1412
" /> 
<path style="fill:#840000; fill-opacity:1.0000; 
stroke:#840000; stroke-width:0.1524; stroke-opacity:1; 
stroke-linecap:round; stroke-linejoin:round;fill-rule:evenodd;"
d="M 6.2240,10.2362
5.5890,8.9662
6.8590,8.9662
Z" /> 
<path style="fill:none; 
stroke:#840000; stroke-width:0.1524; stroke-opacity:1; 
stroke-linecap:round; stroke-linejoin:round;fill:none"
d="M 7.4940,8.9662
8.3830,9.8552
8.3830,9.4742
8.3830,9.8552
7.8750,9.8552
" /> 
<path style="fill:none; 
stroke:#840000; stroke-width:0.1524; stroke-opacity:1; 
stroke-linecap:round; stroke-linejoin:round;fill:none"
d="M 7.4940,10.2362
8.3830,11.1252
8.3830,10.6172
8.3830,11.1252
7.8750,11.1252
" /> 
<path style="fill:none; 
stroke:#840000; stroke-width:0.1524; stroke-opacity:1; 
stroke-linecap:round; stroke-linejoin:round;fill:none"
d="M 9.3990,8.3312
11.3040,8.3312
" /> 
<path style="fill:none; 
stroke:#840000; stroke-width:0.1524; stroke-opacity:1; 
stroke-linecap:round; stroke-linejoin:round;fill:none"
d="M 9.3990,8.3312
9.3990,10.8712
11.3040,10.8712
" /> 
<path style="fill:none; 
stroke:#840000; stroke-width:0.1524; stroke-opacity:1; 
stroke-linecap:round; stroke-linejoin:round;fill:none"
d="M 10.0340,4.5212
10.0340,8.3312
" /> 
<path style="fill:none; 
stroke:#840000; stroke-width:0.1524; stroke-opacity:1; 
stroke-linecap:round; stroke-linejoin:round;fill:none"
d="M 10.0340,14.6812
10.0340,10.8712
" /> 
</g>
<g style="fill:none; 
stroke:#840000; stroke-width:0.1524; stroke-opacity:1; 
stroke-linecap:round; stroke-linejoin:round;">
<path d="M11.3040 10.8708 A1.2698 1.2698 0.0 0 0 11.3040 8.3312" />
<circle cx="12.5740" cy="9.6012" r="0.0763" /> 
</g>
<g style="fill:none; 
stroke:#840000; stroke-width:0.1524; stroke-opacity:1; 
stroke-linecap:round; stroke-linejoin:round;">
<circle cx="12.8280" cy="9.6012" r="0.2794" /> 
<path style="fill:none; 
stroke:#840000; stroke-width:0.1524; stroke-opacity:1; 
stroke-linecap:round; stroke-linejoin:round;fill:none"
d="M 13.2090,9.6012
15.1140,9.6012
" /> 
<rect x="4.954000" y="5.791200" width="10.160000" height="7.620000" rx="0.000000" />
<path d="M4.9540 7.0612
L2.4140 7.0612
" />
</g>
<g style="fill:none; 
stroke:#006464; stroke-width:0.1524; stroke-opacity:1; 
stroke-linecap:round; stroke-linejoin:round;">
<text x="3.6840" y="6.8072"
textLength="1.1103" font-size="1.6933" lengthAdjust="spacingAndGlyphs"
text-anchor="middle" opacity="0" stroke-opacity="0">~</text>
<g class="stroked-text"><desc>~</desc>
<path d="M3.3514 6.1599
L3.4119 6.0994
" />
<path d="M3.4119 6.0994
L3.5328 6.0390
" />
<path d="M3.5328 6.0390
L3.7747 6.1599
" />
<path d="M3.7747 6.1599
L3.8957 6.0994
" />
<path d="M3.8957 6.0994
L3.9562 6.0390
" />
</g></g>
<g style="fill:none; 
stroke:#A90000; stroke-width:0.1524; stroke-opacity:1; 
stroke-linecap:round; stroke-linejoin:round;">
<text x="3.6840" y="8.5852"
textLength="1.4127" font-size="1.6933" lengthAdjust="spacingAndGlyphs"
text-anchor="middle" opacity="0" stroke-opacity="0">1</text>
<g class="stroked-text"><desc>1</desc>
<path d="M4.0469 8.6376
L3.3212 8.6376
" />
<path d="M3.6840 8.6376
L3.6840 7.3676
" />
<path d="M3.6840 7.3676
L3.5631 7.5491
" />
<path d="M3.5631 7.5491
L3.4421 7.6700
" />
<path d="M3.4421 7.6700
L3.3212 7.7305
" />
</g></g>
<g style="fill:none; 
stroke:#840000; stroke-width:0.1524; stroke-opacity:1; 
stroke-linecap:round; stroke-linejoin:round;">
<path d="M4.9540 12.1412
L2.4140 12.1412
" />
</g>
<g style="fill:none; 
stroke:#006464; stroke-width:0.1524; stroke-opacity:1; 
stroke-linecap:round; stroke-linejoin:round;">
<text x="3.6840" y="11.8872"
textLength="1.1103" font-size="1.6933" lengthAdjust="spacingAndGlyphs"
text-anchor="middle" opacity="0" stroke-opacity="0">~</text>
<g class="stroked-text"><desc>~</desc>
<path d="M3.3514 11.2399
L3.4119 11.1794
" />
<path d="M3.4119 11.1794
L3.5328 11.1190
" />
<path d="M3.5328 11.1190
L3.7747 11.2399
" />
<path d="M3.7747 11.2399
L3.8957 11.1794
" />
<path d="M3.8957 11.1794
L3.9562 11.1190
" />
</g></g>
<g style="fill:none; 
stroke:#A90000; stroke-width:0.1524; stroke-opacity:1; 
stroke-linecap:round; stroke-linejoin:round;">
<text x="3.6840" y="13.6652"
textLength="1.4127" font-size="1.6933" lengthAdjust="spacingAndGlyphs"
text-anchor="middle" opacity="0" stroke-opacity="0">2</text>
<g class="stroked-text"><desc>2</desc>
<path d="M3.3212 12.5686
L3.3816 12.5081
" />
<path d="M3.3816 12.5081
L3.5026 12.4476
" />
<path d="M3.5026 12.4476
L3.8050 12.4476
" />
<path d="M3.8050 12.4476
L3.9259 12.5081
" />
<path d="M3.9259 12.5081
L3.9864 12.5686
" />
<path d="M3.9864 12.5686
L4.0469 12.6895
" />
<path d="M4.0469 12.6895
L4.0469 12.8105
" />
<path d="M4.0469 12.8105
L3.9864 12.9919
" />
<path d="M3.9864 12.9919
L3.2607 13.7176
" />
<path d="M3.2607 13.7176
L4.0469 13.7176
" />
</g></g>
<g style="fill:none; 
stroke:#840000; stroke-width:0.1524; stroke-opacity:1; 
stroke-linecap:round; stroke-linejoin:round;">
<path d="M15.1140 9.6012
L17.6540 9.6012
" />
</g>
<g style="fill:none; 
stroke:#006464; stroke-width:0.1524; stroke-opacity:1; 
stroke-linecap:round; stroke-linejoin:round;">
<text x="16.3840" y="9.3472"
textLength="2.6223" font-size="1.6933" lengthAdjust="spacingAndGlyphs"
text-anchor="middle" opacity="0" stroke-opacity="0">VO</text>
<g class="stroked-text"><desc>VO</desc>
<path d="M15.2954 7.9137
L15.7187 9.1837
" />
<path d="M15.7187 9.1837
L16.1421 7.9137
" />
<path d="M16.8073 7.9137
L17.0492 7.9137
" />
<path d="M17.0492 7.9137
L17.1702 7.9742
" />
<path d="M17.1702 7.9742
L17.2911 8.0952
" />
<path d="M17.2911 8.0952
L17.3516 8.3371
" />
<path d="M17.3516 8.3371
L17.3516 8.7604
" />
<path d="M17.3516 8.7604
L17.2911 9.0023
" />
<path d="M17.2911 9.0023
L17.1702 9.1233
" />
<path d="M17.1702 9.1233
L17.0492 9.1837
" />
<path d="M17.0492 9.1837
L16.8073 9.1837
" />
<path d="M16.8073 9.1837
L16.6864 9.1233
" />
<path d="M16.6864 9.1233
L16.5654 9.0023
" />
<path d="M16.5654 9.0023
L16.5050 8.7604
" />
<path d="M16.5050 8.7604
L16.5050 8.3371
" />
<path d="M16.5050 8.3371
L16.5654 8.0952
" />
<path d="M16.5654 8.0952
L16.6864 7.9742
" />
<path d="M16.6864 7.9742
L16.8073 7.9137
" />
</g></g>
<g style="fill:none; 
stroke:#A90000; stroke-width:0.1524; stroke-opacity:1; 
stroke-linecap:round; stroke-linejoin:round;">
<text x="16.3840" y="11.1252"
textLength="1.4127" font-size="1.6933" lengthAdjust="spacingAndGlyphs"
text-anchor="middle" opacity="0" stroke-opacity="0">4</text>
<g class="stroked-text"><desc>4</desc>
<path d="M16.6259 10.3310
L16.6259 11.1776
" />
<path d="M16.3235 9.8472
L16.0212 10.7543
" />
<path d="M16.0212 10.7543
L16.8073 10.7543
" />
</g></g>
<g style="fill:none; 
stroke:#840000; stroke-width:0.1524; stroke-opacity:1; 
stroke-linecap:round; stroke-linejoin:round;">
<path d="M10.0340 13.4112
L10.0340 17.2212
" />
</g>
<g style="fill:none; 
stroke:#006464; stroke-width:0.1524; stroke-opacity:1; 
stroke-linecap:round; stroke-linejoin:round;">
<g transform="rotate(-90.000000 9.7800 15.3162)">
<text x="9.7800" y="15.3162"
textLength="4.0737" font-size="1.6933" lengthAdjust="spacingAndGlyphs"
text-anchor="middle" opacity="0" stroke-opacity="0">GND</text>
</g>
<g class="stroked-text"><desc>GND</desc>
<path d="M8.4070 16.2837
L8.3465 16.4047
" />
<path d="M8.3465 16.4047
L8.3465 16.5861
" />
<path d="M8.3465 16.5861
L8.4070 16.7675
" />
<path d="M8.4070 16.7675
L8.5280 16.8885
" />
<path d="M8.5280 16.8885
L8.6489 16.9490
" />
<path d="M8.6489 16.9490
L8.8908 17.0094
" />
<path d="M8.8908 17.0094
L9.0722 17.0094
" />
<path d="M9.0722 17.0094
L9.3141 16.9490
" />
<path d="M9.3141 16.9490
L9.4351 16.8885
" />
<path d="M9.4351 16.8885
L9.5561 16.7675
" />
<path d="M9.5561 16.7675
L9.6165 16.5861
" />
<path d="M9.6165 16.5861
L9.6165 16.4652
" />
<path d="M9.6165 16.4652
L9.5561 16.2837
" />
<path d="M9.5561 16.2837
L9.4956 16.2233
" />
<path d="M9.4956 16.2233
L9.0722 16.2233
" />
<path d="M9.0722 16.2233
L9.0722 16.4652
" />
<path d="M9.6165 15.6790
L8.3465 15.6790
" />
<path d="M8.3465 15.6790
L9.6165 14.9533
" />
<path d="M9.6165 14.9533
L8.3465 14.9533
" />
<path d="M9.6165 14.3485
L8.3465 14.3485
" />
<path d="M8.3465 14.3485
L8.3465 14.0461
" />
<path d="M8.3465 14.0461
L8.4070 13.8647
" />
<path d="M8.4070 13.8647
L8.5280 13.7437
" />
<path d="M8.5280 13.7437
L8.6489 13.6832
" />
<path d="M8.6489 13.6832
L8.8908 13.6228
" />
<path d="M8.8908 13.6228
L9.0722 13.6228
" />
<path d="M9.0722 13.6228
L9.3141 13.6832
" />
<path d="M9.3141 13.6832
L9.4351 13.7437
" />
<path d="M9.4351 13.7437
L9.5561 13.8647
" />
<path d="M9.5561 13.8647
L9.6165 14.0461
" />
<path d="M9.6165 14.0461
L9.6165 14.3485
" />
</g></g>
<g style="fill:none; 
stroke:#A90000; stroke-width:0.1524; stroke-opacity:1; 
stroke-linecap:round; stroke-linejoin:round;">
<g transform="rotate(-90.000000 10.2880 15.3162)">
<text x="10.2880" y="16.5862"
textLength="1.4127" font-size="1.6933" lengthAdjust="spacingAndGlyphs"
text-anchor="middle" opacity="0" stroke-opacity="0">5</text>
</g>
<g class="stroked-text"><desc>5</desc>
<path d="M10.3404 15.0137
L10.3404 15.6185
" />
<path d="M10.3404 15.6185
L10.9452 15.6789
" />
<path d="M10.9452 15.6789
L10.8847 15.6185
" />
<path d="M10.8847 15.6185
L10.8242 15.4975
" />
<path d="M10.8242 15.4975
L10.8242 15.1951
" />
<path d="M10.8242 15.1951
L10.8847 15.0742
" />
<path d="M10.8847 15.0742
L10.9452 15.0137
" />
<path d="M10.9452 15.0137
L11.0661 14.9532
" />
<path d="M11.0661 14.9532
L11.3685 14.9532
" />
<path d="M11.3685 14.9532
L11.4895 15.0137
" />
<path d="M11.4895 15.0137
L11.5500 15.0742
" />
<path d="M11.5500 15.0742
L11.6104 15.1951
" />
<path d="M11.6104 15.1951
L11.6104 15.4975
" />
<path d="M11.6104 15.4975
L11.5500 15.6185
" />
<path d="M11.5500 15.6185
L11.4895 15.6789
" />
</g></g>
<g style="fill:none; 
stroke:#840000; stroke-width:0.1524; stroke-opacity:1; 
stroke-linecap:round; stroke-linejoin:round;">
<path d="M10.0340 5.7912
L10.0340 1.9812
" />
</g>
<g style="fill:none; 
stroke:#006464; stroke-width:0.1524; stroke-opacity:1; 
stroke-linecap:round; stroke-linejoin:round;">
<g transform="rotate(-90.000000 9.7800 3.8862)">
<text x="9.7800" y="3.8862"
textLength="3.8318" font-size="1.6933" lengthAdjust="spacingAndGlyphs"
text-anchor="middle" opacity="0" stroke-opacity="0">VCC</text>
</g>
<g class="stroked-text"><desc>VCC</desc>
<path d="M8.3465 5.5795
L9.6165 5.1562
" />
<path d="M9.6165 5.1562
L8.3465 4.7328
" />
<path d="M9.4956 3.5838
L9.5561 3.6442
" />
<path d="M9.5561 3.6442
L9.6165 3.8257
" />
<path d="M9.6165 3.8257
L9.6165 3.9466
" />
<path d="M9.6165 3.9466
L9.5561 4.1280
" />
<path d="M9.5561 4.1280
L9.4351 4.2490
" />
<path d="M9.4351 4.2490
L9.3141 4.3095
" />
<path d="M9.3141 4.3095
L9.0722 4.3699
" />
<path d="M9.0722 4.3699
L8.8908 4.3699
" />
<path d="M8.8908 4.3699
L8.6489 4.3095
" />
<path d="M8.6489 4.3095
L8.5280 4.2490
" />
<path d="M8.5280 4.2490
L8.4070 4.1280
" />
<path d="M8.4070 4.1280
L8.3465 3.9466
" />
<path d="M8.3465 3.9466
L8.3465 3.8257
" />
<path d="M8.3465 3.8257
L8.4070 3.6442
" />
<path d="M8.4070 3.6442
L8.4675 3.5838
" />
<path d="M9.4956 2.3138
L9.5561 2.3742
" />
<path d="M9.5561 2.3742
L9.6165 2.5557
" />
<path d="M9.6165 2.5557
L9.6165 2.6766
" />
<path d="M9.6165 2.6766
L9.5561 2.8580
" />
<path d="M9.5561 2.8580
L9.4351 2.9790
" />
<path d="M9.4351 2.9790
L9.3141 3.0395
" />
<path d="M9.3141 3.0395
L9.0722 3.0999
" />
<path d="M9.0722 3.0999
L8.8908 3.0999
" />
<path d="M8.8908 3.0999
L8.6489 3.0395
" />
<path d="M8.6489 3.0395
L8.5280 2.9790
" />
<path d="M8.5280 2.9790
L8.4070 2.8580
" />
<path d="M8.4070 2.8580
L8.3465 2.6766
" />
<path d="M8.3465 2.6766
L8.3465 2.5557
" />
<path d="M8.3465 2.5557
L8.4070 2.3742
" />
<path d="M8.4070 2.3742
L8.4675 2.3138
" />
</g></g>
<g style="fill:none; 
stroke:#A90000; stroke-width:0.1524; stroke-opacity:1; 
stroke-linecap:round; stroke-linejoin:round;">
<g transform="rotate(-90.000000 10.2880 3.8862)">
<text x="10.2880" y="5.1562"
textLength="1.4127" font-size="1.6933" lengthAdjust="spacingAndGlyphs"
text-anchor="middle" opacity="0" stroke-opacity="0">6</text>
</g>
<g class="stroked-text"><desc>6</desc>
<path d="M10.3404 3.6442
L10.3404 3.8861
" />
<path d="M10.3404 3.8861
L10.4009 4.0070
" />
<path d="M10.4009 4.0070
L10.4614 4.0675
" />
<path d="M10.4614 4.0675
L10.6428 4.1885
" />
<path d="M10.6428 4.1885
L10.8847 4.2489
" />
<path d="M10.8847 4.2489
L11.3685 4.2489
" />
<path d="M11.3685 4.2489
L11.4895 4.1885
" />
<path d="M11.4895 4.1885
L11.5500 4.1280
" />
<path d="M11.5500 4.1280
L11.6104 4.0070
" />
<path d="M11.6104 4.0070
L11.6104 3.7651
" />
<path d="M11.6104 3.7651
L11.5500 3.6442
" />
<path d="M11.5500 3.6442
L11.4895 3.5837
" />
<path d="M11.4895 3.5837
L11.3685 3.5232
" />
<path d="M11.3685 3.5232
L11.0661 3.5232
" />
<path d="M11.0661 3.5232
L10.9452 3.5837
" />
<path d="M10.9452 3.5837
L10.8847 3.6442
" />
<path d="M10.8847 3.6442
L10.8242 3.7651
" />
<path d="M10.8242 3.7651
L10.8242 4.0070
" />
<path d="M10.8242 4.0070
L10.8847 4.1280
" />
<path d="M10.8847 4.1280
L10.9452 4.1885
" />
<path d="M10.9452 4.1885
L11.0661 4.2489
" />
</g></g>
<g style="fill:none; 
stroke:#006464; stroke-width:0.1524; stroke-opacity:1; 
stroke-linecap:round; stroke-linejoin:round;">
<text x="4.9540" y="4.0132"
textLength="3.0553" font-size="2.0320" lengthAdjust="spacingAndGlyphs"
text-anchor="middle" opacity="0" stroke-opacity="0">U?</text>
<g class="stroked-text"><desc>U?</desc>
<path d="M3.8654 2.4242
L3.8654 3.6579
" />
<path d="M3.8654 3.6579
L3.9380 3.8031
" />
<path d="M3.9380 3.8031
L4.0106 3.8757
" />
<path d="M4.0106 3.8757
L4.1557 3.9482
" />
<path d="M4.1557 3.9482
L4.4460 3.9482
" />
<path d="M4.4460 3.9482
L4.5911 3.8757
" />
<path d="M4.5911 3.8757
L4.6637 3.8031
" />
<path d="M4.6637 3.8031
L4.7363 3.6579
" />
<path d="M4.7363 3.6579
L4.7363 2.4242
" />
<path d="M5.6797 3.8031
L5.7523 3.8757
" />
<path d="M5.7523 3.8757
L5.6797 3.9482
" />
<path d="M5.6797 3.9482
L5.6072 3.8757
" />
<path d="M5.6072 3.8757
L5.6797 3.8031
" />
<path d="M5.6797 3.8031
L5.6797 3.9482
" />
<path d="M5.3894 2.4968
L5.5346 2.4242
" />
<path d="M5.5346 2.4242
L5.8974 2.4242
" />
<path d="M5.8974 2.4242
L6.0426 2.4968
" />
<path d="M6.0426 2.4968
L6.1152 2.6419
" />
<path d="M6.1152 2.6419
L6.1152 2.7871
" />
<path d="M6.1152 2.7871
L6.0426 2.9322
" />
<path d="M6.0426 2.9322
L5.9700 3.0048
" />
<path d="M5.9700 3.0048
L5.8249 3.0774
" />
<path d="M5.8249 3.0774
L5.7523 3.1499
" />
<path d="M5.7523 3.1499
L5.6797 3.2951
" />
<path d="M5.6797 3.2951
L5.6797 3.3677
" />
</g><text x="13.2090" y="16.7132"
textLength="9.0786" font-size="2.0320" lengthAdjust="spacingAndGlyphs"
text-anchor="start" opacity="0" stroke-opacity="0">H11L1M</text>
<g class="stroked-text"><desc>H11L1M</desc>
<path d="M13.6720 16.6482
L13.6720 15.1242
" />
<path d="M13.6720 15.8499
L14.5429 15.8499
" />
<path d="M14.5429 16.6482
L14.5429 15.1242
" />
<path d="M16.0669 16.6482
L15.1960 16.6482
" />
<path d="M15.6315 16.6482
L15.6315 15.1242
" />
<path d="M15.6315 15.1242
L15.4863 15.3419
" />
<path d="M15.4863 15.3419
L15.3412 15.4871
" />
<path d="M15.3412 15.4871
L15.1960 15.5597
" />
<path d="M17.5183 16.6482
L16.6474 16.6482
" />
<path d="M17.0829 16.6482
L17.0829 15.1242
" />
<path d="M17.0829 15.1242
L16.9377 15.3419
" />
<path d="M16.9377 15.3419
L16.7926 15.4871
" />
<path d="M16.7926 15.4871
L16.6474 15.5597
" />
<path d="M18.8971 16.6482
L18.1714 16.6482
" />
<path d="M18.1714 16.6482
L18.1714 15.1242
" />
<path d="M20.2034 16.6482
L19.3325 16.6482
" />
<path d="M19.7680 16.6482
L19.7680 15.1242
" />
<path d="M19.7680 15.1242
L19.6228 15.3419
" />
<path d="M19.6228 15.3419
L19.4777 15.4871
" />
<path d="M19.4777 15.4871
L19.3325 15.5597
" />
<path d="M20.8565 16.6482
L20.8565 15.1242
" />
<path d="M20.8565 15.1242
L21.3645 16.2128
" />
<path d="M21.3645 16.2128
L21.8725 15.1242
" />
<path d="M21.8725 15.1242
L21.8725 16.6482
" />
</g></g> 
</svg>
