<?xml version="1.0" standalone="no"?>
 <!DOCTYPE svg PUBLIC "-//W3C//DTD SVG 1.1//EN" 
 "http://www.w3.org/Graphics/SVG/1.1/DTD/svg11.dtd"> 
<svg
  xmlns:svg="http://www.w3.org/2000/svg"
  xmlns="http://www.w3.org/2000/svg"
  xmlns:xlink="http://www.w3.org/1999/xlink"
  xmlns:inkscape="http://www.inkscape.org/namespaces/inkscape"
  version="1.1"
  width="19.2024mm" height="21.9964mm" viewBox="0.0000 0.0000 19.2024 21.9964">
<title>SVG Image created as ILD207T_unit1.svg date 2026-08-07T01:18:44 </title>
  <desc>Image generated by Eeschema-SVG </desc>
<g style="fill:#000000; fill-opacity:1.0000;stroke:#000000; stroke-opacity:1.0000;
stroke-linecap:round; stroke-linejoin:round;"
 transform="translate(0 0) scale(1 1)">
</g>
<g style="fill:#FFFFC2; fill-opacity:1.0000; stroke:none;">
<rect x="4.521200" y="4.330700" width="10.160000" height="12.700000" rx="0.000000" />
</g>
<g style="fill:none; 
stroke:#840000; stroke-width:0.1524; stroke-opacity:1; 
stroke-linecap:round; stroke-linejoin:round;">
<rect x="4.521200" y="4.330700" width="10.160000" height="12.700000" rx="0.000000" />
<path style="fill:none; 
stroke:#840000; stroke-width:0.1524; stroke-opacity:1; 
stroke-linecap:round; stroke-linejoin:round;fill:none"
d="M 4.5212,6.8707
7.0612,6.8707
7.0612,7.5057
" /> 
<path style="fill:none; 
stroke:#840000; stroke-width:0.1524; stroke-opacity:1; 
stroke-linecap:round; stroke-linejoin:round;fill:none"
d="M 4.5212,9.4107
7.0612,9.4107
7.0612,8.7757
" /> 
<path style="fill:none; 
stroke:#840000; stroke-width:0.1524; stroke-opacity:1; 
stroke-linecap:round; stroke-linejoin:round;fill:none"
d="M 4.5212,11.9507
7.0612,11.9507
7.0612,12.5857
" /> 
<path style="fill:none; 
stroke:#840000; stroke-width:0.1524; stroke-opacity:1; 
stroke-linecap:round; stroke-linejoin:round;fill:none"
d="M 4.5212,14.4907
7.0612,14.4907
7.0612,13.8557
" /> 
<path style="fill:#840000; fill-opacity:1.0000; 
stroke:#840000; stroke-width:0.1524; stroke-opacity:1; 
stroke-linecap:round; stroke-linejoin:round;fill-rule:evenodd;"
d="M 6.4262,7.5057
7.6962,7.5057
7.0612,8.7757
Z" /> 
<path style="fill:none; 
stroke:#840000; stroke-width:0.1524; stroke-opacity:1; 
stroke-linecap:round; stroke-linejoin:round;fill:none"
d="M 6.4262,8.7757
7.6962,8.7757
" /> 
<path style="fill:#840000; fill-opacity:1.0000; 
stroke:#840000; stroke-width:0.1524; stroke-opacity:1; 
stroke-linecap:round; stroke-linejoin:round;fill-rule:evenodd;"
d="M 6.4262,12.5857
7.6962,12.5857
7.0612,13.8557
Z" /> 
<path style="fill:none; 
stroke:#840000; stroke-width:0.1524; stroke-opacity:1; 
stroke-linecap:round; stroke-linejoin:round;fill:none"
d="M 6.4262,13.8557
7.6962,13.8557
" /> 
<path style="fill:none; 
stroke:#840000; stroke-width:0.1524; stroke-opacity:1; 
stroke-linecap:round; stroke-linejoin:round;fill:none"
d="M 11.5062,6.8707
11.5062,9.4107
" /> 
<path style="fill:none; 
stroke:#840000; stroke-width:0.1524; stroke-opacity:1; 
stroke-linecap:round; stroke-linejoin:round;fill:none"
d="M 11.5062,7.5057
12.7762,6.8707
14.6812,6.8707
" /> 
<path style="fill:none; 
stroke:#840000; stroke-width:0.1524; stroke-opacity:1; 
stroke-linecap:round; stroke-linejoin:round;fill:none"
d="M 11.5062,8.7757
12.7762,9.4107
14.6812,9.4107
" /> 
<path style="fill:none; 
stroke:#840000; stroke-width:0.1524; stroke-opacity:1; 
stroke-linecap:round; stroke-linejoin:round;fill:none"
d="M 11.5062,11.9507
11.5062,14.4907
" /> 
<path style="fill:none; 
stroke:#840000; stroke-width:0.1524; stroke-opacity:1; 
stroke-linecap:round; stroke-linejoin:round;fill:none"
d="M 11.5062,12.5857
12.7762,11.9507
14.6812,11.9507
" /> 
<path style="fill:none; 
stroke:#840000; stroke-width:0.1524; stroke-opacity:1; 
stroke-linecap:round; stroke-linejoin:round;fill:none"
d="M 11.5062,13.8557
12.7762,14.4907
14.6812,14.4907
" /> 
<path style="fill:#840000; fill-opacity:1.0000; 
stroke:#840000; stroke-width:0.1524; stroke-opacity:1; 
stroke-linecap:round; stroke-linejoin:round;fill-rule:evenodd;"
d="M 12.7762,9.4107
12.2682,8.7757
12.0142,9.4107
Z" /> 
<path style="fill:#840000; fill-opacity:1.0000; 
stroke:#840000; stroke-width:0.1524; stroke-opacity:1; 
stroke-linecap:round; stroke-linejoin:round;fill-rule:evenodd;"
d="M 12.7762,14.4907
12.2682,13.8557
12.0142,14.4907
Z" /> 
</g>
<g style="fill:none; 
stroke:#840000; stroke-width:0.1524; stroke-opacity:1; 
stroke-linecap:round; stroke-linejoin:round;">
<path d="M4.5212 6.8707
L1.9812 6.8707
" />
</g>
<g style="fill:none; 
stroke:#006464; stroke-width:0.1524; stroke-opacity:1; 
stroke-linecap:round; stroke-linejoin:round;">
<text x="5.5372" y="7.5057"
textLength="1.1103" font-size="1.6933" lengthAdjust="spacingAndGlyphs"
text-anchor="start" opacity="0" stroke-opacity="0">~</text>
<g class="stroked-text"><desc>~</desc>
<path d="M5.7583 6.9664
L5.8188 6.9059
" />
<path d="M5.8188 6.9059
L5.9397 6.8455
" />
<path d="M5.9397 6.8455
L6.1816 6.9664
" />
<path d="M6.1816 6.9664
L6.3026 6.9059
" />
<path d="M6.3026 6.9059
L6.3631 6.8455
" />
</g></g>
<g style="fill:none; 
stroke:#A90000; stroke-width:0.1524; stroke-opacity:1; 
stroke-linecap:round; stroke-linejoin:round;">
<text x="3.2512" y="6.6167"
textLength="1.4127" font-size="1.6933" lengthAdjust="spacingAndGlyphs"
text-anchor="middle" opacity="0" stroke-opacity="0">1</text>
<g class="stroked-text"><desc>1</desc>
<path d="M3.6141 6.4532
L2.8884 6.4532
" />
<path d="M3.2512 6.4532
L3.2512 5.1832
" />
<path d="M3.2512 5.1832
L3.1303 5.3647
" />
<path d="M3.1303 5.3647
L3.0093 5.4856
" />
<path d="M3.0093 5.4856
L2.8884 5.5461
" />
</g></g>
<g style="fill:none; 
stroke:#840000; stroke-width:0.1524; stroke-opacity:1; 
stroke-linecap:round; stroke-linejoin:round;">
<path d="M4.5212 9.4107
L1.9812 9.4107
" />
</g>
<g style="fill:none; 
stroke:#006464; stroke-width:0.1524; stroke-opacity:1; 
stroke-linecap:round; stroke-linejoin:round;">
<text x="5.5372" y="10.0457"
textLength="1.1103" font-size="1.6933" lengthAdjust="spacingAndGlyphs"
text-anchor="start" opacity="0" stroke-opacity="0">~</text>
<g class="stroked-text"><desc>~</desc>
<path d="M5.7583 9.5064
L5.8188 9.4459
" />
<path d="M5.8188 9.4459
L5.9397 9.3855
" />
<path d="M5.9397 9.3855
L6.1816 9.5064
" />
<path d="M6.1816 9.5064
L6.3026 9.4459
" />
<path d="M6.3026 9.4459
L6.3631 9.3855
" />
</g></g>
<g style="fill:none; 
stroke:#A90000; stroke-width:0.1524; stroke-opacity:1; 
stroke-linecap:round; stroke-linejoin:round;">
<text x="3.2512" y="9.1567"
textLength="1.4127" font-size="1.6933" lengthAdjust="spacingAndGlyphs"
text-anchor="middle" opacity="0" stroke-opacity="0">2</text>
<g class="stroked-text"><desc>2</desc>
<path d="M2.8884 7.8442
L2.9488 7.7837
" />
<path d="M2.9488 7.7837
L3.0698 7.7232
" />
<path d="M3.0698 7.7232
L3.3722 7.7232
" />
<path d="M3.3722 7.7232
L3.4931 7.7837
" />
<path d="M3.4931 7.7837
L3.5536 7.8442
" />
<path d="M3.5536 7.8442
L3.6141 7.9651
" />
<path d="M3.6141 7.9651
L3.6141 8.0861
" />
<path d="M3.6141 8.0861
L3.5536 8.2675
" />
<path d="M3.5536 8.2675
L2.8279 8.9932
" />
<path d="M2.8279 8.9932
L3.6141 8.9932
" />
</g></g>
<g style="fill:none; 
stroke:#840000; stroke-width:0.1524; stroke-opacity:1; 
stroke-linecap:round; stroke-linejoin:round;">
<path d="M4.5212 11.9507
L1.9812 11.9507
" />
</g>
<g style="fill:none; 
stroke:#006464; stroke-width:0.1524; stroke-opacity:1; 
stroke-linecap:round; stroke-linejoin:round;">
<text x="5.5372" y="12.5857"
textLength="1.1103" font-size="1.6933" lengthAdjust="spacingAndGlyphs"
text-anchor="start" opacity="0" stroke-opacity="0">~</text>
<g class="stroked-text"><desc>~</desc>
<path d="M5.7583 12.0464
L5.8188 11.9859
" />
<path d="M5.8188 11.9859
L5.9397 11.9255
" />
<path d="M5.9397 11.9255
L6.1816 12.0464
" />
<path d="M6.1816 12.0464
L6.3026 11.9859
" />
<path d="M6.3026 11.9859
L6.3631 11.9255
" />
</g></g>
<g style="fill:none; 
stroke:#A90000; stroke-width:0.1524; stroke-opacity:1; 
stroke-linecap:round; stroke-linejoin:round;">
<text x="3.2512" y="11.6967"
textLength="1.4127" font-size="1.6933" lengthAdjust="spacingAndGlyphs"
text-anchor="middle" opacity="0" stroke-opacity="0">3</text>
<g class="stroked-text"><desc>3</desc>
<path d="M2.8279 10.2632
L3.6141 10.2632
" />
<path d="M3.6141 10.2632
L3.1907 10.7470
" />
<path d="M3.1907 10.7470
L3.3722 10.7470
" />
<path d="M3.3722 10.7470
L3.4931 10.8075
" />
<path d="M3.4931 10.8075
L3.5536 10.8680
" />
<path d="M3.5536 10.8680
L3.6141 10.9889
" />
<path d="M3.6141 10.9889
L3.6141 11.2913
" />
<path d="M3.6141 11.2913
L3.5536 11.4123
" />
<path d="M3.5536 11.4123
L3.4931 11.4728
" />
<path d="M3.4931 11.4728
L3.3722 11.5332
" />
<path d="M3.3722 11.5332
L3.0093 11.5332
" />
<path d="M3.0093 11.5332
L2.8884 11.4728
" />
<path d="M2.8884 11.4728
L2.8279 11.4123
" />
</g></g>
<g style="fill:none; 
stroke:#840000; stroke-width:0.1524; stroke-opacity:1; 
stroke-linecap:round; stroke-linejoin:round;">
<path d="M4.5212 14.4907
L1.9812 14.4907
" />
</g>
<g style="fill:none; 
stroke:#006464; stroke-width:0.1524; stroke-opacity:1; 
stroke-linecap:round; stroke-linejoin:round;">
<text x="5.5372" y="15.1257"
textLength="1.1103" font-size="1.6933" lengthAdjust="spacingAndGlyphs"
text-anchor="start" opacity="0" stroke-opacity="0">~</text>
<g class="stroked-text"><desc>~</desc>
<path d="M5.7583 14.5864
L5.8188 14.5259
" />
<path d="M5.8188 14.5259
L5.9397 14.4655
" />
<path d="M5.9397 14.4655
L6.1816 14.5864
" />
<path d="M6.1816 14.5864
L6.3026 14.5259
" />
<path d="M6.3026 14.5259
L6.3631 14.4655
" />
</g></g>
<g style="fill:none; 
stroke:#A90000; stroke-width:0.1524; stroke-opacity:1; 
stroke-linecap:round; stroke-linejoin:round;">
<text x="3.2512" y="14.2367"
textLength="1.4127" font-size="1.6933" lengthAdjust="spacingAndGlyphs"
text-anchor="middle" opacity="0" stroke-opacity="0">4</text>
<g class="stroked-text"><desc>4</desc>
<path d="M3.4931 13.2266
L3.4931 14.0732
" />
<path d="M3.1907 12.7428
L2.8884 13.6499
" />
<path d="M2.8884 13.6499
L3.6745 13.6499
" />
</g></g>
<g style="fill:none; 
stroke:#840000; stroke-width:0.1524; stroke-opacity:1; 
stroke-linecap:round; stroke-linejoin:round;">
<path d="M14.6812 14.4907
L17.2212 14.4907
" />
</g>
<g style="fill:none; 
stroke:#006464; stroke-width:0.1524; stroke-opacity:1; 
stroke-linecap:round; stroke-linejoin:round;">
<text x="13.6652" y="15.1257"
textLength="1.1103" font-size="1.6933" lengthAdjust="spacingAndGlyphs"
text-anchor="end" opacity="0" stroke-opacity="0">~</text>
<g class="stroked-text"><desc>~</desc>
<path d="M12.7788 14.5864
L12.8393 14.5259
" />
<path d="M12.8393 14.5259
L12.9602 14.4655
" />
<path d="M12.9602 14.4655
L13.2021 14.5864
" />
<path d="M13.2021 14.5864
L13.3231 14.5259
" />
<path d="M13.3231 14.5259
L13.3836 14.4655
" />
</g></g>
<g style="fill:none; 
stroke:#A90000; stroke-width:0.1524; stroke-opacity:1; 
stroke-linecap:round; stroke-linejoin:round;">
<text x="15.9512" y="14.2367"
textLength="1.4127" font-size="1.6933" lengthAdjust="spacingAndGlyphs"
text-anchor="middle" opacity="0" stroke-opacity="0">5</text>
<g class="stroked-text"><desc>5</desc>
<path d="M16.2536 12.8032
L15.6488 12.8032
" />
<path d="M15.6488 12.8032
L15.5884 13.4080
" />
<path d="M15.5884 13.4080
L15.6488 13.3475
" />
<path d="M15.6488 13.3475
L15.7698 13.2870
" />
<path d="M15.7698 13.2870
L16.0722 13.2870
" />
<path d="M16.0722 13.2870
L16.1931 13.3475
" />
<path d="M16.1931 13.3475
L16.2536 13.4080
" />
<path d="M16.2536 13.4080
L16.3141 13.5289
" />
<path d="M16.3141 13.5289
L16.3141 13.8313
" />
<path d="M16.3141 13.8313
L16.2536 13.9523
" />
<path d="M16.2536 13.9523
L16.1931 14.0128
" />
<path d="M16.1931 14.0128
L16.0722 14.0732
" />
<path d="M16.0722 14.0732
L15.7698 14.0732
" />
<path d="M15.7698 14.0732
L15.6488 14.0128
" />
<path d="M15.6488 14.0128
L15.5884 13.9523
" />
</g></g>
<g style="fill:none; 
stroke:#840000; stroke-width:0.1524; stroke-opacity:1; 
stroke-linecap:round; stroke-linejoin:round;">
<path d="M14.6812 11.9507
L17.2212 11.9507
" />
</g>
<g style="fill:none; 
stroke:#006464; stroke-width:0.1524; stroke-opacity:1; 
stroke-linecap:round; stroke-linejoin:round;">
<text x="13.6652" y="12.5857"
textLength="1.1103" font-size="1.6933" lengthAdjust="spacingAndGlyphs"
text-anchor="end" opacity="0" stroke-opacity="0">~</text>
<g class="stroked-text"><desc>~</desc>
<path d="M12.7788 12.0464
L12.8393 11.9859
" />
<path d="M12.8393 11.9859
L12.9602 11.9255
" />
<path d="M12.9602 11.9255
L13.2021 12.0464
" />
<path d="M13.2021 12.0464
L13.3231 11.9859
" />
<path d="M13.3231 11.9859
L13.3836 11.9255
" />
</g></g>
<g style="fill:none; 
stroke:#A90000; stroke-width:0.1524; stroke-opacity:1; 
stroke-linecap:round; stroke-linejoin:round;">
<text x="15.9512" y="11.6967"
textLength="1.4127" font-size="1.6933" lengthAdjust="spacingAndGlyphs"
text-anchor="middle" opacity="0" stroke-opacity="0">6</text>
<g class="stroked-text"><desc>6</desc>
<path d="M16.1931 10.2632
L15.9512 10.2632
" />
<path d="M15.9512 10.2632
L15.8303 10.3237
" />
<path d="M15.8303 10.3237
L15.7698 10.3842
" />
<path d="M15.7698 10.3842
L15.6488 10.5656
" />
<path d="M15.6488 10.5656
L15.5884 10.8075
" />
<path d="M15.5884 10.8075
L15.5884 11.2913
" />
<path d="M15.5884 11.2913
L15.6488 11.4123
" />
<path d="M15.6488 11.4123
L15.7093 11.4728
" />
<path d="M15.7093 11.4728
L15.8303 11.5332
" />
<path d="M15.8303 11.5332
L16.0722 11.5332
" />
<path d="M16.0722 11.5332
L16.1931 11.4728
" />
<path d="M16.1931 11.4728
L16.2536 11.4123
" />
<path d="M16.2536 11.4123
L16.3141 11.2913
" />
<path d="M16.3141 11.2913
L16.3141 10.9889
" />
<path d="M16.3141 10.9889
L16.2536 10.8680
" />
<path d="M16.2536 10.8680
L16.1931 10.8075
" />
<path d="M16.1931 10.8075
L16.0722 10.7470
" />
<path d="M16.0722 10.7470
L15.8303 10.7470
" />
<path d="M15.8303 10.7470
L15.7093 10.8075
" />
<path d="M15.7093 10.8075
L15.6488 10.8680
" />
<path d="M15.6488 10.8680
L15.5884 10.9889
" />
</g></g>
<g style="fill:none; 
stroke:#840000; stroke-width:0.1524; stroke-opacity:1; 
stroke-linecap:round; stroke-linejoin:round;">
<path d="M14.6812 9.4107
L17.2212 9.4107
" />
</g>
<g style="fill:none; 
stroke:#006464; stroke-width:0.1524; stroke-opacity:1; 
stroke-linecap:round; stroke-linejoin:round;">
<text x="13.6652" y="10.0457"
textLength="1.1103" font-size="1.6933" lengthAdjust="spacingAndGlyphs"
text-anchor="end" opacity="0" stroke-opacity="0">~</text>
<g class="stroked-text"><desc>~</desc>
<path d="M12.7788 9.5064
L12.8393 9.4459
" />
<path d="M12.8393 9.4459
L12.9602 9.3855
" />
<path d="M12.9602 9.3855
L13.2021 9.5064
" />
<path d="M13.2021 9.5064
L13.3231 9.4459
" />
<path d="M13.3231 9.4459
L13.3836 9.3855
" />
</g></g>
<g style="fill:none; 
stroke:#A90000; stroke-width:0.1524; stroke-opacity:1; 
stroke-linecap:round; stroke-linejoin:round;">
<text x="15.9512" y="9.1567"
textLength="1.4127" font-size="1.6933" lengthAdjust="spacingAndGlyphs"
text-anchor="middle" opacity="0" stroke-opacity="0">7</text>
<g class="stroked-text"><desc>7</desc>
<path d="M15.5279 7.7232
L16.3745 7.7232
" />
<path d="M16.3745 7.7232
L15.8303 8.9932
" />
</g></g>
<g style="fill:none; 
stroke:#840000; stroke-width:0.1524; stroke-opacity:1; 
stroke-linecap:round; stroke-linejoin:round;">
<path d="M14.6812 6.8707
L17.2212 6.8707
" />
</g>
<g style="fill:none; 
stroke:#006464; stroke-width:0.1524; stroke-opacity:1; 
stroke-linecap:round; stroke-linejoin:round;">
<text x="13.6652" y="7.5057"
textLength="1.1103" font-size="1.6933" lengthAdjust="spacingAndGlyphs"
text-anchor="end" opacity="0" stroke-opacity="0">~</text>
<g class="stroked-text"><desc>~</desc>
<path d="M12.7788 6.9664
L12.8393 6.9059
" />
<path d="M12.8393 6.9059
L12.9602 6.8455
" />
<path d="M12.9602 6.8455
L13.2021 6.9664
" />
<path d="M13.2021 6.9664
L13.3231 6.9059
" />
<path d="M13.3231 6.9059
L13.3836 6.8455
" />
</g></g>
<g style="fill:none; 
stroke:#A90000; stroke-width:0.1524; stroke-opacity:1; 
stroke-linecap:round; stroke-linejoin:round;">
<text x="15.9512" y="6.6167"
textLength="1.4127" font-size="1.6933" lengthAdjust="spacingAndGlyphs"
text-anchor="middle" opacity="0" stroke-opacity="0">8</text>
<g class="stroked-text"><desc>8</desc>
<path d="M15.8303 5.7275
L15.7093 5.6670
" />
<path d="M15.7093 5.6670
L15.6488 5.6066
" />
<path d="M15.6488 5.6066
L15.5884 5.4856
" />
<path d="M15.5884 5.4856
L15.5884 5.4251
" />
<path d="M15.5884 5.4251
L15.6488 5.3042
" />
<path d="M15.6488 5.3042
L15.7093 5.2437
" />
<path d="M15.7093 5.2437
L15.8303 5.1832
" />
<path d="M15.8303 5.1832
L16.0722 5.1832
" />
<path d="M16.0722 5.1832
L16.1931 5.2437
" />
<path d="M16.1931 5.2437
L16.2536 5.3042
" />
<path d="M16.2536 5.3042
L16.3141 5.4251
" />
<path d="M16.3141 5.4251
L16.3141 5.4856
" />
<path d="M16.3141 5.4856
L16.2536 5.6066
" />
<path d="M16.2536 5.6066
L16.1931 5.6670
" />
<path d="M16.1931 5.6670
L16.0722 5.7275
" />
<path d="M16.0722 5.7275
L15.8303 5.7275
" />
<path d="M15.8303 5.7275
L15.7093 5.7880
" />
<path d="M15.7093 5.7880
L15.6488 5.8485
" />
<path d="M15.6488 5.8485
L15.5884 5.9694
" />
<path d="M15.5884 5.9694
L15.5884 6.2113
" />
<path d="M15.5884 6.2113
L15.6488 6.3323
" />
<path d="M15.6488 6.3323
L15.7093 6.3928
" />
<path d="M15.7093 6.3928
L15.8303 6.4532
" />
<path d="M15.8303 6.4532
L16.0722 6.4532
" />
<path d="M16.0722 6.4532
L16.1931 6.3928
" />
<path d="M16.1931 6.3928
L16.2536 6.3323
" />
<path d="M16.2536 6.3323
L16.3141 6.2113
" />
<path d="M16.3141 6.2113
L16.3141 5.9694
" />
<path d="M16.3141 5.9694
L16.2536 5.8485
" />
<path d="M16.2536 5.8485
L16.1931 5.7880
" />
<path d="M16.1931 5.7880
L16.0722 5.7275
" />
</g></g>
<g style="fill:none; 
stroke:#006464; stroke-width:0.1524; stroke-opacity:1; 
stroke-linecap:round; stroke-linejoin:round;">
<text x="9.6012" y="3.8227"
textLength="3.0553" font-size="2.0320" lengthAdjust="spacingAndGlyphs"
text-anchor="middle" opacity="0" stroke-opacity="0">U?</text>
<g class="stroked-text"><desc>U?</desc>
<path d="M8.5126 2.2337
L8.5126 3.4674
" />
<path d="M8.5126 3.4674
L8.5852 3.6126
" />
<path d="M8.5852 3.6126
L8.6578 3.6852
" />
<path d="M8.6578 3.6852
L8.8029 3.7577
" />
<path d="M8.8029 3.7577
L9.0932 3.7577
" />
<path d="M9.0932 3.7577
L9.2383 3.6852
" />
<path d="M9.2383 3.6852
L9.3109 3.6126
" />
<path d="M9.3109 3.6126
L9.3835 3.4674
" />
<path d="M9.3835 3.4674
L9.3835 2.2337
" />
<path d="M10.3269 3.6126
L10.3995 3.6852
" />
<path d="M10.3995 3.6852
L10.3269 3.7577
" />
<path d="M10.3269 3.7577
L10.2544 3.6852
" />
<path d="M10.2544 3.6852
L10.3269 3.6126
" />
<path d="M10.3269 3.6126
L10.3269 3.7577
" />
<path d="M10.0366 2.3063
L10.1818 2.2337
" />
<path d="M10.1818 2.2337
L10.5446 2.2337
" />
<path d="M10.5446 2.2337
L10.6898 2.3063
" />
<path d="M10.6898 2.3063
L10.7624 2.4514
" />
<path d="M10.7624 2.4514
L10.7624 2.5966
" />
<path d="M10.7624 2.5966
L10.6898 2.7417
" />
<path d="M10.6898 2.7417
L10.6172 2.8143
" />
<path d="M10.6172 2.8143
L10.4721 2.8869
" />
<path d="M10.4721 2.8869
L10.3995 2.9594
" />
<path d="M10.3995 2.9594
L10.3269 3.1046
" />
<path d="M10.3269 3.1046
L10.3269 3.1772
" />
</g><text x="9.6012" y="19.6977"
textLength="9.1511" font-size="2.0320" lengthAdjust="spacingAndGlyphs"
text-anchor="middle" opacity="0" stroke-opacity="0">ILD207T</text>
<g class="stroked-text"><desc>ILD207T</desc>
<path d="M5.4647 19.6327
L5.4647 18.1087
" />
<path d="M6.9161 19.6327
L6.1904 19.6327
" />
<path d="M6.1904 19.6327
L6.1904 18.1087
" />
<path d="M7.4241 19.6327
L7.4241 18.1087
" />
<path d="M7.4241 18.1087
L7.7870 18.1087
" />
<path d="M7.7870 18.1087
L8.0047 18.1813
" />
<path d="M8.0047 18.1813
L8.1498 18.3264
" />
<path d="M8.1498 18.3264
L8.2224 18.4716
" />
<path d="M8.2224 18.4716
L8.2950 18.7619
" />
<path d="M8.2950 18.7619
L8.2950 18.9796
" />
<path d="M8.2950 18.9796
L8.2224 19.2699
" />
<path d="M8.2224 19.2699
L8.1498 19.4150
" />
<path d="M8.1498 19.4150
L8.0047 19.5602
" />
<path d="M8.0047 19.5602
L7.7870 19.6327
" />
<path d="M7.7870 19.6327
L7.4241 19.6327
" />
<path d="M8.8755 18.2539
L8.9481 18.1813
" />
<path d="M8.9481 18.1813
L9.0933 18.1087
" />
<path d="M9.0933 18.1087
L9.4561 18.1087
" />
<path d="M9.4561 18.1087
L9.6013 18.1813
" />
<path d="M9.6013 18.1813
L9.6738 18.2539
" />
<path d="M9.6738 18.2539
L9.7464 18.3990
" />
<path d="M9.7464 18.3990
L9.7464 18.5442
" />
<path d="M9.7464 18.5442
L9.6738 18.7619
" />
<path d="M9.6738 18.7619
L8.8030 19.6327
" />
<path d="M8.8030 19.6327
L9.7464 19.6327
" />
<path d="M10.6898 18.1087
L10.8349 18.1087
" />
<path d="M10.8349 18.1087
L10.9801 18.1813
" />
<path d="M10.9801 18.1813
L11.0527 18.2539
" />
<path d="M11.0527 18.2539
L11.1252 18.3990
" />
<path d="M11.1252 18.3990
L11.1978 18.6893
" />
<path d="M11.1978 18.6893
L11.1978 19.0522
" />
<path d="M11.1978 19.0522
L11.1252 19.3424
" />
<path d="M11.1252 19.3424
L11.0527 19.4876
" />
<path d="M11.0527 19.4876
L10.9801 19.5602
" />
<path d="M10.9801 19.5602
L10.8349 19.6327
" />
<path d="M10.8349 19.6327
L10.6898 19.6327
" />
<path d="M10.6898 19.6327
L10.5447 19.5602
" />
<path d="M10.5447 19.5602
L10.4721 19.4876
" />
<path d="M10.4721 19.4876
L10.3995 19.3424
" />
<path d="M10.3995 19.3424
L10.3269 19.0522
" />
<path d="M10.3269 19.0522
L10.3269 18.6893
" />
<path d="M10.3269 18.6893
L10.3995 18.3990
" />
<path d="M10.3995 18.3990
L10.4721 18.2539
" />
<path d="M10.4721 18.2539
L10.5447 18.1813
" />
<path d="M10.5447 18.1813
L10.6898 18.1087
" />
<path d="M11.7058 18.1087
L12.7218 18.1087
" />
<path d="M12.7218 18.1087
L12.0686 19.6327
" />
<path d="M13.0846 18.1087
L13.9555 18.1087
" />
<path d="M13.5200 19.6327
L13.5200 18.1087
" />
</g></g> 
</svg>
