<?xml version="1.0" standalone="no"?>
 <!DOCTYPE svg PUBLIC "-//W3C//DTD SVG 1.1//EN" 
 "http://www.w3.org/Graphics/SVG/1.1/DTD/svg11.dtd"> 
<svg
  xmlns:svg="http://www.w3.org/2000/svg"
  xmlns="http://www.w3.org/2000/svg"
  xmlns:xlink="http://www.w3.org/1999/xlink"
  xmlns:inkscape="http://www.inkscape.org/namespaces/inkscape"
  version="1.1"
  width="37.0078mm" height="30.3784mm" viewBox="0.0000 0.0000 37.0078 30.3784">
<title>SVG Image created as IR2110PBF_unit1.svg date 2026-08-07T01:18:44 </title>
  <desc>Image generated by Eeschema-SVG </desc>
<g style="fill:#000000; fill-opacity:1.0000;stroke:#000000; stroke-opacity:1.0000;
stroke-linecap:round; stroke-linejoin:round;"
 transform="translate(0 0) scale(1 1)">
</g>
<g style="fill:#FFFFC2; fill-opacity:1.0000; stroke:none;">
<rect x="7.270400" y="7.569200" width="12.700000" height="15.240000" rx="0.000000" />
</g>
<g style="fill:none; 
stroke:#840000; stroke-width:0.1524; stroke-opacity:1; 
stroke-linecap:round; stroke-linejoin:round;">
<rect x="7.270400" y="7.569200" width="12.700000" height="15.240000" rx="0.000000" />
<path d="M19.9704 18.9992
L23.7804 18.9992
" />
</g>
<g style="fill:none; 
stroke:#006464; stroke-width:0.1524; stroke-opacity:1; 
stroke-linecap:round; stroke-linejoin:round;">
<text x="19.4624" y="19.6342"
textLength="2.5618" font-size="1.6933" lengthAdjust="spacingAndGlyphs"
text-anchor="end" opacity="0" stroke-opacity="0">LO</text>
<g class="stroked-text"><desc>LO</desc>
<path d="M17.9107 19.5787
L17.3059 19.5787
" />
<path d="M17.3059 19.5787
L17.3059 18.3087
" />
<path d="M18.5759 18.3087
L18.8178 18.3087
" />
<path d="M18.8178 18.3087
L18.9388 18.3692
" />
<path d="M18.9388 18.3692
L19.0597 18.4902
" />
<path d="M19.0597 18.4902
L19.1202 18.7321
" />
<path d="M19.1202 18.7321
L19.1202 19.1554
" />
<path d="M19.1202 19.1554
L19.0597 19.3973
" />
<path d="M19.0597 19.3973
L18.9388 19.5183
" />
<path d="M18.9388 19.5183
L18.8178 19.5787
" />
<path d="M18.8178 19.5787
L18.5759 19.5787
" />
<path d="M18.5759 19.5787
L18.4550 19.5183
" />
<path d="M18.4550 19.5183
L18.3340 19.3973
" />
<path d="M18.3340 19.3973
L18.2736 19.1554
" />
<path d="M18.2736 19.1554
L18.2736 18.7321
" />
<path d="M18.2736 18.7321
L18.3340 18.4902
" />
<path d="M18.3340 18.4902
L18.4550 18.3692
" />
<path d="M18.4550 18.3692
L18.5759 18.3087
" />
</g></g>
<g style="fill:none; 
stroke:#A90000; stroke-width:0.1524; stroke-opacity:1; 
stroke-linecap:round; stroke-linejoin:round;">
<text x="21.8754" y="18.7452"
textLength="1.4127" font-size="1.6933" lengthAdjust="spacingAndGlyphs"
text-anchor="middle" opacity="0" stroke-opacity="0">1</text>
<g class="stroked-text"><desc>1</desc>
<path d="M22.2383 18.5817
L21.5126 18.5817
" />
<path d="M21.8754 18.5817
L21.8754 17.3117
" />
<path d="M21.8754 17.3117
L21.7545 17.4932
" />
<path d="M21.7545 17.4932
L21.6335 17.6141
" />
<path d="M21.6335 17.6141
L21.5126 17.6746
" />
</g></g>
<g style="fill:none; 
stroke:#840000; stroke-width:0.1524; stroke-opacity:1; 
stroke-linecap:round; stroke-linejoin:round;">
<path d="M16.1604 22.8092
L16.1604 26.6192
" />
</g>
<g style="fill:none; 
stroke:#006464; stroke-width:0.1524; stroke-opacity:1; 
stroke-linecap:round; stroke-linejoin:round;">
<g transform="rotate(-90.000000 16.1604 22.3012)">
<text x="16.1604" y="22.9362"
textLength="4.2551" font-size="1.6933" lengthAdjust="spacingAndGlyphs"
text-anchor="start" opacity="0" stroke-opacity="0">COM</text>
</g>
<g class="stroked-text"><desc>COM</desc>
<path d="M16.6190 21.1729
L16.6795 21.2333
" />
<path d="M16.6795 21.2333
L16.7399 21.4148
" />
<path d="M16.7399 21.4148
L16.7399 21.5357
" />
<path d="M16.7399 21.5357
L16.6795 21.7171
" />
<path d="M16.6795 21.7171
L16.5585 21.8381
" />
<path d="M16.5585 21.8381
L16.4375 21.8986
" />
<path d="M16.4375 21.8986
L16.1956 21.9590
" />
<path d="M16.1956 21.9590
L16.0142 21.9590
" />
<path d="M16.0142 21.9590
L15.7723 21.8986
" />
<path d="M15.7723 21.8986
L15.6514 21.8381
" />
<path d="M15.6514 21.8381
L15.5304 21.7171
" />
<path d="M15.5304 21.7171
L15.4699 21.5357
" />
<path d="M15.4699 21.5357
L15.4699 21.4148
" />
<path d="M15.4699 21.4148
L15.5304 21.2333
" />
<path d="M15.5304 21.2333
L15.5909 21.1729
" />
<path d="M15.4699 20.3867
L15.4699 20.1448
" />
<path d="M15.4699 20.1448
L15.5304 20.0238
" />
<path d="M15.5304 20.0238
L15.6514 19.9029
" />
<path d="M15.6514 19.9029
L15.8933 19.8424
" />
<path d="M15.8933 19.8424
L16.3166 19.8424
" />
<path d="M16.3166 19.8424
L16.5585 19.9029
" />
<path d="M16.5585 19.9029
L16.6795 20.0238
" />
<path d="M16.6795 20.0238
L16.7399 20.1448
" />
<path d="M16.7399 20.1448
L16.7399 20.3867
" />
<path d="M16.7399 20.3867
L16.6795 20.5076
" />
<path d="M16.6795 20.5076
L16.5585 20.6286
" />
<path d="M16.5585 20.6286
L16.3166 20.6890
" />
<path d="M16.3166 20.6890
L15.8933 20.6890
" />
<path d="M15.8933 20.6890
L15.6514 20.6286
" />
<path d="M15.6514 20.6286
L15.5304 20.5076
" />
<path d="M15.5304 20.5076
L15.4699 20.3867
" />
<path d="M16.7399 19.2981
L15.4699 19.2981
" />
<path d="M15.4699 19.2981
L16.3771 18.8747
" />
<path d="M16.3771 18.8747
L15.4699 18.4514
" />
<path d="M15.4699 18.4514
L16.7399 18.4514
" />
</g></g>
<g style="fill:none; 
stroke:#A90000; stroke-width:0.1524; stroke-opacity:1; 
stroke-linecap:round; stroke-linejoin:round;">
<g transform="rotate(-90.000000 15.9064 24.7142)">
<text x="15.9064" y="24.7142"
textLength="1.4127" font-size="1.6933" lengthAdjust="spacingAndGlyphs"
text-anchor="middle" opacity="0" stroke-opacity="0">2</text>
</g>
<g class="stroked-text"><desc>2</desc>
<path d="M14.5939 25.0769
L14.5334 25.0165
" />
<path d="M14.5334 25.0165
L14.4729 24.8955
" />
<path d="M14.4729 24.8955
L14.4729 24.5931
" />
<path d="M14.4729 24.5931
L14.5334 24.4722
" />
<path d="M14.5334 24.4722
L14.5939 24.4117
" />
<path d="M14.5939 24.4117
L14.7148 24.3512
" />
<path d="M14.7148 24.3512
L14.8358 24.3512
" />
<path d="M14.8358 24.3512
L15.0172 24.4117
" />
<path d="M15.0172 24.4117
L15.7429 25.1374
" />
<path d="M15.7429 25.1374
L15.7429 24.3512
" />
</g></g>
<g style="fill:none; 
stroke:#840000; stroke-width:0.1524; stroke-opacity:1; 
stroke-linecap:round; stroke-linejoin:round;">
<path d="M16.1604 7.5692
L16.1604 3.7592
" />
</g>
<g style="fill:none; 
stroke:#006464; stroke-width:0.1524; stroke-opacity:1; 
stroke-linecap:round; stroke-linejoin:round;">
<g transform="rotate(-90.000000 16.1604 8.0772)">
<text x="16.1604" y="8.7122"
textLength="3.8318" font-size="1.6933" lengthAdjust="spacingAndGlyphs"
text-anchor="end" opacity="0" stroke-opacity="0">VCC</text>
</g>
<g class="stroked-text"><desc>VCC</desc>
<path d="M15.4699 11.6850
L16.7399 11.2617
" />
<path d="M16.7399 11.2617
L15.4699 10.8383
" />
<path d="M16.6190 9.6893
L16.6795 9.7497
" />
<path d="M16.6795 9.7497
L16.7399 9.9312
" />
<path d="M16.7399 9.9312
L16.7399 10.0521
" />
<path d="M16.7399 10.0521
L16.6795 10.2335
" />
<path d="M16.6795 10.2335
L16.5585 10.3545
" />
<path d="M16.5585 10.3545
L16.4375 10.4150
" />
<path d="M16.4375 10.4150
L16.1956 10.4754
" />
<path d="M16.1956 10.4754
L16.0142 10.4754
" />
<path d="M16.0142 10.4754
L15.7723 10.4150
" />
<path d="M15.7723 10.4150
L15.6514 10.3545
" />
<path d="M15.6514 10.3545
L15.5304 10.2335
" />
<path d="M15.5304 10.2335
L15.4699 10.0521
" />
<path d="M15.4699 10.0521
L15.4699 9.9312
" />
<path d="M15.4699 9.9312
L15.5304 9.7497
" />
<path d="M15.5304 9.7497
L15.5909 9.6893
" />
<path d="M16.6190 8.4193
L16.6795 8.4797
" />
<path d="M16.6795 8.4797
L16.7399 8.6612
" />
<path d="M16.7399 8.6612
L16.7399 8.7821
" />
<path d="M16.7399 8.7821
L16.6795 8.9635
" />
<path d="M16.6795 8.9635
L16.5585 9.0845
" />
<path d="M16.5585 9.0845
L16.4375 9.1450
" />
<path d="M16.4375 9.1450
L16.1956 9.2054
" />
<path d="M16.1956 9.2054
L16.0142 9.2054
" />
<path d="M16.0142 9.2054
L15.7723 9.1450
" />
<path d="M15.7723 9.1450
L15.6514 9.0845
" />
<path d="M15.6514 9.0845
L15.5304 8.9635
" />
<path d="M15.5304 8.9635
L15.4699 8.7821
" />
<path d="M15.4699 8.7821
L15.4699 8.6612
" />
<path d="M15.4699 8.6612
L15.5304 8.4797
" />
<path d="M15.5304 8.4797
L15.5909 8.4193
" />
</g></g>
<g style="fill:none; 
stroke:#A90000; stroke-width:0.1524; stroke-opacity:1; 
stroke-linecap:round; stroke-linejoin:round;">
<g transform="rotate(-90.000000 15.9064 5.6642)">
<text x="15.9064" y="5.6642"
textLength="1.4127" font-size="1.6933" lengthAdjust="spacingAndGlyphs"
text-anchor="middle" opacity="0" stroke-opacity="0">3</text>
</g>
<g class="stroked-text"><desc>3</desc>
<path d="M14.4729 6.0874
L14.4729 5.3012
" />
<path d="M14.4729 5.3012
L14.9567 5.7246
" />
<path d="M14.9567 5.7246
L14.9567 5.5431
" />
<path d="M14.9567 5.5431
L15.0172 5.4222
" />
<path d="M15.0172 5.4222
L15.0777 5.3617
" />
<path d="M15.0777 5.3617
L15.1986 5.3012
" />
<path d="M15.1986 5.3012
L15.5010 5.3012
" />
<path d="M15.5010 5.3012
L15.6220 5.3617
" />
<path d="M15.6220 5.3617
L15.6825 5.4222
" />
<path d="M15.6825 5.4222
L15.7429 5.5431
" />
<path d="M15.7429 5.5431
L15.7429 5.9060
" />
<path d="M15.7429 5.9060
L15.6825 6.0269
" />
<path d="M15.6825 6.0269
L15.6220 6.0874
" />
</g></g>
<g style="fill:none; 
stroke:#840000; stroke-width:0.1524; stroke-opacity:1; 
stroke-linecap:round; stroke-linejoin:round;">
<path d="M19.9704 16.4592
L23.7804 16.4592
" />
</g>
<g style="fill:none; 
stroke:#006464; stroke-width:0.1524; stroke-opacity:1; 
stroke-linecap:round; stroke-linejoin:round;">
<text x="19.4624" y="17.0942"
textLength="2.5013" font-size="1.6933" lengthAdjust="spacingAndGlyphs"
text-anchor="end" opacity="0" stroke-opacity="0">VS</text>
<g class="stroked-text"><desc>VS</desc>
<path d="M17.1850 15.7687
L17.6083 17.0387
" />
<path d="M17.6083 17.0387
L18.0317 15.7687
" />
<path d="M18.3946 16.9783
L18.5760 17.0387
" />
<path d="M18.5760 17.0387
L18.8784 17.0387
" />
<path d="M18.8784 17.0387
L18.9993 16.9783
" />
<path d="M18.9993 16.9783
L19.0598 16.9178
" />
<path d="M19.0598 16.9178
L19.1203 16.7968
" />
<path d="M19.1203 16.7968
L19.1203 16.6759
" />
<path d="M19.1203 16.6759
L19.0598 16.5549
" />
<path d="M19.0598 16.5549
L18.9993 16.4944
" />
<path d="M18.9993 16.4944
L18.8784 16.4340
" />
<path d="M18.8784 16.4340
L18.6365 16.3735
" />
<path d="M18.6365 16.3735
L18.5155 16.3130
" />
<path d="M18.5155 16.3130
L18.4550 16.2525
" />
<path d="M18.4550 16.2525
L18.3946 16.1316
" />
<path d="M18.3946 16.1316
L18.3946 16.0106
" />
<path d="M18.3946 16.0106
L18.4550 15.8897
" />
<path d="M18.4550 15.8897
L18.5155 15.8292
" />
<path d="M18.5155 15.8292
L18.6365 15.7687
" />
<path d="M18.6365 15.7687
L18.9388 15.7687
" />
<path d="M18.9388 15.7687
L19.1203 15.8292
" />
</g></g>
<g style="fill:none; 
stroke:#A90000; stroke-width:0.1524; stroke-opacity:1; 
stroke-linecap:round; stroke-linejoin:round;">
<text x="21.8754" y="16.2052"
textLength="1.4127" font-size="1.6933" lengthAdjust="spacingAndGlyphs"
text-anchor="middle" opacity="0" stroke-opacity="0">5</text>
<g class="stroked-text"><desc>5</desc>
<path d="M22.1778 14.7717
L21.5730 14.7717
" />
<path d="M21.5730 14.7717
L21.5126 15.3765
" />
<path d="M21.5126 15.3765
L21.5730 15.3160
" />
<path d="M21.5730 15.3160
L21.6940 15.2555
" />
<path d="M21.6940 15.2555
L21.9964 15.2555
" />
<path d="M21.9964 15.2555
L22.1173 15.3160
" />
<path d="M22.1173 15.3160
L22.1778 15.3765
" />
<path d="M22.1778 15.3765
L22.2383 15.4974
" />
<path d="M22.2383 15.4974
L22.2383 15.7998
" />
<path d="M22.2383 15.7998
L22.1778 15.9208
" />
<path d="M22.1778 15.9208
L22.1173 15.9813
" />
<path d="M22.1173 15.9813
L21.9964 16.0417
" />
<path d="M21.9964 16.0417
L21.6940 16.0417
" />
<path d="M21.6940 16.0417
L21.5730 15.9813
" />
<path d="M21.5730 15.9813
L21.5126 15.9208
" />
</g></g>
<g style="fill:none; 
stroke:#840000; stroke-width:0.1524; stroke-opacity:1; 
stroke-linecap:round; stroke-linejoin:round;">
<path d="M13.6204 7.5692
L13.6204 3.7592
" />
</g>
<g style="fill:none; 
stroke:#006464; stroke-width:0.1524; stroke-opacity:1; 
stroke-linecap:round; stroke-linejoin:round;">
<g transform="rotate(-90.000000 13.6204 8.0772)">
<text x="13.6204" y="8.7122"
textLength="2.5618" font-size="1.6933" lengthAdjust="spacingAndGlyphs"
text-anchor="end" opacity="0" stroke-opacity="0">VB</text>
</g>
<g class="stroked-text"><desc>VB</desc>
<path d="M12.9299 10.4150
L14.1999 9.9917
" />
<path d="M14.1999 9.9917
L12.9299 9.5683
" />
<path d="M13.5347 8.7216
L13.5952 8.5402
" />
<path d="M13.5952 8.5402
L13.6556 8.4797
" />
<path d="M13.6556 8.4797
L13.7766 8.4193
" />
<path d="M13.7766 8.4193
L13.9580 8.4193
" />
<path d="M13.9580 8.4193
L14.0790 8.4797
" />
<path d="M14.0790 8.4797
L14.1395 8.5402
" />
<path d="M14.1395 8.5402
L14.1999 8.6612
" />
<path d="M14.1999 8.6612
L14.1999 9.1450
" />
<path d="M14.1999 9.1450
L12.9299 9.1450
" />
<path d="M12.9299 9.1450
L12.9299 8.7216
" />
<path d="M12.9299 8.7216
L12.9904 8.6007
" />
<path d="M12.9904 8.6007
L13.0509 8.5402
" />
<path d="M13.0509 8.5402
L13.1718 8.4797
" />
<path d="M13.1718 8.4797
L13.2928 8.4797
" />
<path d="M13.2928 8.4797
L13.4137 8.5402
" />
<path d="M13.4137 8.5402
L13.4742 8.6007
" />
<path d="M13.4742 8.6007
L13.5347 8.7216
" />
<path d="M13.5347 8.7216
L13.5347 9.1450
" />
</g></g>
<g style="fill:none; 
stroke:#A90000; stroke-width:0.1524; stroke-opacity:1; 
stroke-linecap:round; stroke-linejoin:round;">
<g transform="rotate(-90.000000 13.3664 5.6642)">
<text x="13.3664" y="5.6642"
textLength="1.4127" font-size="1.6933" lengthAdjust="spacingAndGlyphs"
text-anchor="middle" opacity="0" stroke-opacity="0">6</text>
</g>
<g class="stroked-text"><desc>6</desc>
<path d="M11.9329 5.4222
L11.9329 5.6641
" />
<path d="M11.9329 5.6641
L11.9934 5.7850
" />
<path d="M11.9934 5.7850
L12.0539 5.8455
" />
<path d="M12.0539 5.8455
L12.2353 5.9665
" />
<path d="M12.2353 5.9665
L12.4772 6.0269
" />
<path d="M12.4772 6.0269
L12.9610 6.0269
" />
<path d="M12.9610 6.0269
L13.0820 5.9665
" />
<path d="M13.0820 5.9665
L13.1425 5.9060
" />
<path d="M13.1425 5.9060
L13.2029 5.7850
" />
<path d="M13.2029 5.7850
L13.2029 5.5431
" />
<path d="M13.2029 5.5431
L13.1425 5.4222
" />
<path d="M13.1425 5.4222
L13.0820 5.3617
" />
<path d="M13.0820 5.3617
L12.9610 5.3012
" />
<path d="M12.9610 5.3012
L12.6586 5.3012
" />
<path d="M12.6586 5.3012
L12.5377 5.3617
" />
<path d="M12.5377 5.3617
L12.4772 5.4222
" />
<path d="M12.4772 5.4222
L12.4167 5.5431
" />
<path d="M12.4167 5.5431
L12.4167 5.7850
" />
<path d="M12.4167 5.7850
L12.4772 5.9060
" />
<path d="M12.4772 5.9060
L12.5377 5.9665
" />
<path d="M12.5377 5.9665
L12.6586 6.0269
" />
</g></g>
<g style="fill:none; 
stroke:#840000; stroke-width:0.1524; stroke-opacity:1; 
stroke-linecap:round; stroke-linejoin:round;">
<path d="M19.9704 13.9192
L23.7804 13.9192
" />
</g>
<g style="fill:none; 
stroke:#006464; stroke-width:0.1524; stroke-opacity:1; 
stroke-linecap:round; stroke-linejoin:round;">
<text x="19.4624" y="14.5542"
textLength="2.8642" font-size="1.6933" lengthAdjust="spacingAndGlyphs"
text-anchor="end" opacity="0" stroke-opacity="0">HO</text>
<g class="stroked-text"><desc>HO</desc>
<path d="M17.0035 14.4987
L17.0035 13.2287
" />
<path d="M17.0035 13.8335
L17.7292 13.8335
" />
<path d="M17.7292 14.4987
L17.7292 13.2287
" />
<path d="M18.5759 13.2287
L18.8178 13.2287
" />
<path d="M18.8178 13.2287
L18.9388 13.2892
" />
<path d="M18.9388 13.2892
L19.0597 13.4102
" />
<path d="M19.0597 13.4102
L19.1202 13.6521
" />
<path d="M19.1202 13.6521
L19.1202 14.0754
" />
<path d="M19.1202 14.0754
L19.0597 14.3173
" />
<path d="M19.0597 14.3173
L18.9388 14.4383
" />
<path d="M18.9388 14.4383
L18.8178 14.4987
" />
<path d="M18.8178 14.4987
L18.5759 14.4987
" />
<path d="M18.5759 14.4987
L18.4550 14.4383
" />
<path d="M18.4550 14.4383
L18.3340 14.3173
" />
<path d="M18.3340 14.3173
L18.2736 14.0754
" />
<path d="M18.2736 14.0754
L18.2736 13.6521
" />
<path d="M18.2736 13.6521
L18.3340 13.4102
" />
<path d="M18.3340 13.4102
L18.4550 13.2892
" />
<path d="M18.4550 13.2892
L18.5759 13.2287
" />
</g></g>
<g style="fill:none; 
stroke:#A90000; stroke-width:0.1524; stroke-opacity:1; 
stroke-linecap:round; stroke-linejoin:round;">
<text x="21.8754" y="13.6652"
textLength="1.4127" font-size="1.6933" lengthAdjust="spacingAndGlyphs"
text-anchor="middle" opacity="0" stroke-opacity="0">7</text>
<g class="stroked-text"><desc>7</desc>
<path d="M21.4521 12.2317
L22.2987 12.2317
" />
<path d="M22.2987 12.2317
L21.7545 13.5017
" />
</g></g>
<g style="fill:none; 
stroke:#840000; stroke-width:0.1524; stroke-opacity:1; 
stroke-linecap:round; stroke-linejoin:round;">
<path d="M11.0804 7.5692
L11.0804 3.7592
" />
</g>
<g style="fill:none; 
stroke:#006464; stroke-width:0.1524; stroke-opacity:1; 
stroke-linecap:round; stroke-linejoin:round;">
<g transform="rotate(-90.000000 11.0804 8.0772)">
<text x="11.0804" y="8.7122"
textLength="3.8318" font-size="1.6933" lengthAdjust="spacingAndGlyphs"
text-anchor="end" opacity="0" stroke-opacity="0">VDD</text>
</g>
<g class="stroked-text"><desc>VDD</desc>
<path d="M10.3899 11.6850
L11.6599 11.2617
" />
<path d="M11.6599 11.2617
L10.3899 10.8383
" />
<path d="M11.6599 10.4150
L10.3899 10.4150
" />
<path d="M10.3899 10.4150
L10.3899 10.1126
" />
<path d="M10.3899 10.1126
L10.4504 9.9312
" />
<path d="M10.4504 9.9312
L10.5714 9.8102
" />
<path d="M10.5714 9.8102
L10.6923 9.7497
" />
<path d="M10.6923 9.7497
L10.9342 9.6893
" />
<path d="M10.9342 9.6893
L11.1156 9.6893
" />
<path d="M11.1156 9.6893
L11.3575 9.7497
" />
<path d="M11.3575 9.7497
L11.4785 9.8102
" />
<path d="M11.4785 9.8102
L11.5995 9.9312
" />
<path d="M11.5995 9.9312
L11.6599 10.1126
" />
<path d="M11.6599 10.1126
L11.6599 10.4150
" />
<path d="M11.6599 9.1450
L10.3899 9.1450
" />
<path d="M10.3899 9.1450
L10.3899 8.8426
" />
<path d="M10.3899 8.8426
L10.4504 8.6612
" />
<path d="M10.4504 8.6612
L10.5714 8.5402
" />
<path d="M10.5714 8.5402
L10.6923 8.4797
" />
<path d="M10.6923 8.4797
L10.9342 8.4193
" />
<path d="M10.9342 8.4193
L11.1156 8.4193
" />
<path d="M11.1156 8.4193
L11.3575 8.4797
" />
<path d="M11.3575 8.4797
L11.4785 8.5402
" />
<path d="M11.4785 8.5402
L11.5995 8.6612
" />
<path d="M11.5995 8.6612
L11.6599 8.8426
" />
<path d="M11.6599 8.8426
L11.6599 9.1450
" />
</g></g>
<g style="fill:none; 
stroke:#A90000; stroke-width:0.1524; stroke-opacity:1; 
stroke-linecap:round; stroke-linejoin:round;">
<g transform="rotate(-90.000000 10.8264 5.6642)">
<text x="10.8264" y="5.6642"
textLength="1.4127" font-size="1.6933" lengthAdjust="spacingAndGlyphs"
text-anchor="middle" opacity="0" stroke-opacity="0">9</text>
</g>
<g class="stroked-text"><desc>9</desc>
<path d="M10.6629 5.9060
L10.6629 5.6641
" />
<path d="M10.6629 5.6641
L10.6025 5.5431
" />
<path d="M10.6025 5.5431
L10.5420 5.4827
" />
<path d="M10.5420 5.4827
L10.3605 5.3617
" />
<path d="M10.3605 5.3617
L10.1186 5.3012
" />
<path d="M10.1186 5.3012
L9.6348 5.3012
" />
<path d="M9.6348 5.3012
L9.5139 5.3617
" />
<path d="M9.5139 5.3617
L9.4534 5.4222
" />
<path d="M9.4534 5.4222
L9.3929 5.5431
" />
<path d="M9.3929 5.5431
L9.3929 5.7850
" />
<path d="M9.3929 5.7850
L9.4534 5.9060
" />
<path d="M9.4534 5.9060
L9.5139 5.9665
" />
<path d="M9.5139 5.9665
L9.6348 6.0269
" />
<path d="M9.6348 6.0269
L9.9372 6.0269
" />
<path d="M9.9372 6.0269
L10.0582 5.9665
" />
<path d="M10.0582 5.9665
L10.1186 5.9060
" />
<path d="M10.1186 5.9060
L10.1791 5.7850
" />
<path d="M10.1791 5.7850
L10.1791 5.5431
" />
<path d="M10.1791 5.5431
L10.1186 5.4222
" />
<path d="M10.1186 5.4222
L10.0582 5.3617
" />
<path d="M10.0582 5.3617
L9.9372 5.3012
" />
</g></g>
<g style="fill:none; 
stroke:#840000; stroke-width:0.1524; stroke-opacity:1; 
stroke-linecap:round; stroke-linejoin:round;">
<path d="M7.2704 13.9192
L3.4604 13.9192
" />
</g>
<g style="fill:none; 
stroke:#006464; stroke-width:0.1524; stroke-opacity:1; 
stroke-linecap:round; stroke-linejoin:round;">
<text x="7.7784" y="14.5542"
textLength="3.4690" font-size="1.6933" lengthAdjust="spacingAndGlyphs"
text-anchor="start" opacity="0" stroke-opacity="0">HIN</text>
<g class="stroked-text"><desc>HIN</desc>
<path d="M8.1809 14.4987
L8.1809 13.2287
" />
<path d="M8.1809 13.8335
L8.9066 13.8335
" />
<path d="M8.9066 14.4987
L8.9066 13.2287
" />
<path d="M9.5114 14.4987
L9.5114 13.2287
" />
<path d="M10.1162 14.4987
L10.1162 13.2287
" />
<path d="M10.1162 13.2287
L10.8419 14.4987
" />
<path d="M10.8419 14.4987
L10.8419 13.2287
" />
</g></g>
<g style="fill:none; 
stroke:#A90000; stroke-width:0.1524; stroke-opacity:1; 
stroke-linecap:round; stroke-linejoin:round;">
<text x="5.3654" y="13.6652"
textLength="2.6222" font-size="1.6933" lengthAdjust="spacingAndGlyphs"
text-anchor="middle" opacity="0" stroke-opacity="0">10</text>
<g class="stroked-text"><desc>10</desc>
<path d="M5.1235 13.5017
L4.3978 13.5017
" />
<path d="M4.7606 13.5017
L4.7606 12.2317
" />
<path d="M4.7606 12.2317
L4.6397 12.4132
" />
<path d="M4.6397 12.4132
L4.5187 12.5341
" />
<path d="M4.5187 12.5341
L4.3978 12.5946
" />
<path d="M5.9096 12.2317
L6.0306 12.2317
" />
<path d="M6.0306 12.2317
L6.1515 12.2922
" />
<path d="M6.1515 12.2922
L6.2120 12.3527
" />
<path d="M6.2120 12.3527
L6.2725 12.4736
" />
<path d="M6.2725 12.4736
L6.3330 12.7155
" />
<path d="M6.3330 12.7155
L6.3330 13.0179
" />
<path d="M6.3330 13.0179
L6.2725 13.2598
" />
<path d="M6.2725 13.2598
L6.2120 13.3808
" />
<path d="M6.2120 13.3808
L6.1515 13.4413
" />
<path d="M6.1515 13.4413
L6.0306 13.5017
" />
<path d="M6.0306 13.5017
L5.9096 13.5017
" />
<path d="M5.9096 13.5017
L5.7887 13.4413
" />
<path d="M5.7887 13.4413
L5.7282 13.3808
" />
<path d="M5.7282 13.3808
L5.6677 13.2598
" />
<path d="M5.6677 13.2598
L5.6073 13.0179
" />
<path d="M5.6073 13.0179
L5.6073 12.7155
" />
<path d="M5.6073 12.7155
L5.6677 12.4736
" />
<path d="M5.6677 12.4736
L5.7282 12.3527
" />
<path d="M5.7282 12.3527
L5.7887 12.2922
" />
<path d="M5.7887 12.2922
L5.9096 12.2317
" />
</g></g>
<g style="fill:none; 
stroke:#840000; stroke-width:0.1524; stroke-opacity:1; 
stroke-linecap:round; stroke-linejoin:round;">
<path d="M7.2704 16.4592
L3.4604 16.4592
" />
</g>
<g style="fill:none; 
stroke:#006464; stroke-width:0.1524; stroke-opacity:1; 
stroke-linecap:round; stroke-linejoin:round;">
<text x="7.7784" y="17.0942"
textLength="2.6827" font-size="1.6933" lengthAdjust="spacingAndGlyphs"
text-anchor="start" opacity="0" stroke-opacity="0">SD</text>
<g class="stroked-text"><desc>SD</desc>
<path d="M8.1205 16.9783
L8.3019 17.0387
" />
<path d="M8.3019 17.0387
L8.6043 17.0387
" />
<path d="M8.6043 17.0387
L8.7252 16.9783
" />
<path d="M8.7252 16.9783
L8.7857 16.9178
" />
<path d="M8.7857 16.9178
L8.8462 16.7968
" />
<path d="M8.8462 16.7968
L8.8462 16.6759
" />
<path d="M8.8462 16.6759
L8.7857 16.5549
" />
<path d="M8.7857 16.5549
L8.7252 16.4944
" />
<path d="M8.7252 16.4944
L8.6043 16.4340
" />
<path d="M8.6043 16.4340
L8.3624 16.3735
" />
<path d="M8.3624 16.3735
L8.2414 16.3130
" />
<path d="M8.2414 16.3130
L8.1809 16.2525
" />
<path d="M8.1809 16.2525
L8.1205 16.1316
" />
<path d="M8.1205 16.1316
L8.1205 16.0106
" />
<path d="M8.1205 16.0106
L8.1809 15.8897
" />
<path d="M8.1809 15.8897
L8.2414 15.8292
" />
<path d="M8.2414 15.8292
L8.3624 15.7687
" />
<path d="M8.3624 15.7687
L8.6647 15.7687
" />
<path d="M8.6647 15.7687
L8.8462 15.8292
" />
<path d="M9.3904 17.0387
L9.3904 15.7687
" />
<path d="M9.3904 15.7687
L9.6928 15.7687
" />
<path d="M9.6928 15.7687
L9.8742 15.8292
" />
<path d="M9.8742 15.8292
L9.9952 15.9502
" />
<path d="M9.9952 15.9502
L10.0557 16.0711
" />
<path d="M10.0557 16.0711
L10.1161 16.3130
" />
<path d="M10.1161 16.3130
L10.1161 16.4944
" />
<path d="M10.1161 16.4944
L10.0557 16.7363
" />
<path d="M10.0557 16.7363
L9.9952 16.8573
" />
<path d="M9.9952 16.8573
L9.8742 16.9783
" />
<path d="M9.8742 16.9783
L9.6928 17.0387
" />
<path d="M9.6928 17.0387
L9.3904 17.0387
" />
</g></g>
<g style="fill:none; 
stroke:#A90000; stroke-width:0.1524; stroke-opacity:1; 
stroke-linecap:round; stroke-linejoin:round;">
<text x="5.3654" y="16.2052"
textLength="2.6222" font-size="1.6933" lengthAdjust="spacingAndGlyphs"
text-anchor="middle" opacity="0" stroke-opacity="0">11</text>
<g class="stroked-text"><desc>11</desc>
<path d="M5.1235 16.0417
L4.3978 16.0417
" />
<path d="M4.7606 16.0417
L4.7606 14.7717
" />
<path d="M4.7606 14.7717
L4.6397 14.9532
" />
<path d="M4.6397 14.9532
L4.5187 15.0741
" />
<path d="M4.5187 15.0741
L4.3978 15.1346
" />
<path d="M6.3330 16.0417
L5.6073 16.0417
" />
<path d="M5.9701 16.0417
L5.9701 14.7717
" />
<path d="M5.9701 14.7717
L5.8492 14.9532
" />
<path d="M5.8492 14.9532
L5.7282 15.0741
" />
<path d="M5.7282 15.0741
L5.6073 15.1346
" />
</g></g>
<g style="fill:none; 
stroke:#840000; stroke-width:0.1524; stroke-opacity:1; 
stroke-linecap:round; stroke-linejoin:round;">
<path d="M7.2704 18.9992
L3.4604 18.9992
" />
</g>
<g style="fill:none; 
stroke:#006464; stroke-width:0.1524; stroke-opacity:1; 
stroke-linecap:round; stroke-linejoin:round;">
<text x="7.7784" y="19.6342"
textLength="3.1666" font-size="1.6933" lengthAdjust="spacingAndGlyphs"
text-anchor="start" opacity="0" stroke-opacity="0">LIN</text>
<g class="stroked-text"><desc>LIN</desc>
<path d="M8.7857 19.5787
L8.1809 19.5787
" />
<path d="M8.1809 19.5787
L8.1809 18.3087
" />
<path d="M9.2090 19.5787
L9.2090 18.3087
" />
<path d="M9.8138 19.5787
L9.8138 18.3087
" />
<path d="M9.8138 18.3087
L10.5395 19.5787
" />
<path d="M10.5395 19.5787
L10.5395 18.3087
" />
</g></g>
<g style="fill:none; 
stroke:#A90000; stroke-width:0.1524; stroke-opacity:1; 
stroke-linecap:round; stroke-linejoin:round;">
<text x="5.3654" y="18.7452"
textLength="2.6222" font-size="1.6933" lengthAdjust="spacingAndGlyphs"
text-anchor="middle" opacity="0" stroke-opacity="0">12</text>
<g class="stroked-text"><desc>12</desc>
<path d="M5.1235 18.5817
L4.3978 18.5817
" />
<path d="M4.7606 18.5817
L4.7606 17.3117
" />
<path d="M4.7606 17.3117
L4.6397 17.4932
" />
<path d="M4.6397 17.4932
L4.5187 17.6141
" />
<path d="M4.5187 17.6141
L4.3978 17.6746
" />
<path d="M5.6073 17.4327
L5.6677 17.3722
" />
<path d="M5.6677 17.3722
L5.7887 17.3117
" />
<path d="M5.7887 17.3117
L6.0911 17.3117
" />
<path d="M6.0911 17.3117
L6.2120 17.3722
" />
<path d="M6.2120 17.3722
L6.2725 17.4327
" />
<path d="M6.2725 17.4327
L6.3330 17.5536
" />
<path d="M6.3330 17.5536
L6.3330 17.6746
" />
<path d="M6.3330 17.6746
L6.2725 17.8560
" />
<path d="M6.2725 17.8560
L5.5468 18.5817
" />
<path d="M5.5468 18.5817
L6.3330 18.5817
" />
</g></g>
<g style="fill:none; 
stroke:#840000; stroke-width:0.1524; stroke-opacity:1; 
stroke-linecap:round; stroke-linejoin:round;">
<path d="M13.6204 22.8092
L13.6204 26.6192
" />
</g>
<g style="fill:none; 
stroke:#006464; stroke-width:0.1524; stroke-opacity:1; 
stroke-linecap:round; stroke-linejoin:round;">
<g transform="rotate(-90.000000 13.6204 22.3012)">
<text x="13.6204" y="22.9362"
textLength="3.7108" font-size="1.6933" lengthAdjust="spacingAndGlyphs"
text-anchor="start" opacity="0" stroke-opacity="0">VSS</text>
</g>
<g class="stroked-text"><desc>VSS</desc>
<path d="M12.9299 22.0800
L14.1999 21.6567
" />
<path d="M14.1999 21.6567
L12.9299 21.2333
" />
<path d="M14.1395 20.8704
L14.1999 20.6890
" />
<path d="M14.1999 20.6890
L14.1999 20.3866
" />
<path d="M14.1999 20.3866
L14.1395 20.2657
" />
<path d="M14.1395 20.2657
L14.0790 20.2052
" />
<path d="M14.0790 20.2052
L13.9580 20.1447
" />
<path d="M13.9580 20.1447
L13.8371 20.1447
" />
<path d="M13.8371 20.1447
L13.7161 20.2052
" />
<path d="M13.7161 20.2052
L13.6556 20.2657
" />
<path d="M13.6556 20.2657
L13.5952 20.3866
" />
<path d="M13.5952 20.3866
L13.5347 20.6285
" />
<path d="M13.5347 20.6285
L13.4742 20.7495
" />
<path d="M13.4742 20.7495
L13.4137 20.8100
" />
<path d="M13.4137 20.8100
L13.2928 20.8704
" />
<path d="M13.2928 20.8704
L13.1718 20.8704
" />
<path d="M13.1718 20.8704
L13.0509 20.8100
" />
<path d="M13.0509 20.8100
L12.9904 20.7495
" />
<path d="M12.9904 20.7495
L12.9299 20.6285
" />
<path d="M12.9299 20.6285
L12.9299 20.3262
" />
<path d="M12.9299 20.3262
L12.9904 20.1447
" />
<path d="M14.1395 19.6609
L14.1999 19.4795
" />
<path d="M14.1999 19.4795
L14.1999 19.1771
" />
<path d="M14.1999 19.1771
L14.1395 19.0562
" />
<path d="M14.1395 19.0562
L14.0790 18.9957
" />
<path d="M14.0790 18.9957
L13.9580 18.9352
" />
<path d="M13.9580 18.9352
L13.8371 18.9352
" />
<path d="M13.8371 18.9352
L13.7161 18.9957
" />
<path d="M13.7161 18.9957
L13.6556 19.0562
" />
<path d="M13.6556 19.0562
L13.5952 19.1771
" />
<path d="M13.5952 19.1771
L13.5347 19.4190
" />
<path d="M13.5347 19.4190
L13.4742 19.5400
" />
<path d="M13.4742 19.5400
L13.4137 19.6005
" />
<path d="M13.4137 19.6005
L13.2928 19.6609
" />
<path d="M13.2928 19.6609
L13.1718 19.6609
" />
<path d="M13.1718 19.6609
L13.0509 19.6005
" />
<path d="M13.0509 19.6005
L12.9904 19.5400
" />
<path d="M12.9904 19.5400
L12.9299 19.4190
" />
<path d="M12.9299 19.4190
L12.9299 19.1167
" />
<path d="M12.9299 19.1167
L12.9904 18.9352
" />
</g></g>
<g style="fill:none; 
stroke:#A90000; stroke-width:0.1524; stroke-opacity:1; 
stroke-linecap:round; stroke-linejoin:round;">
<g transform="rotate(-90.000000 13.3664 24.7142)">
<text x="13.3664" y="24.7142"
textLength="2.6222" font-size="1.6933" lengthAdjust="spacingAndGlyphs"
text-anchor="middle" opacity="0" stroke-opacity="0">13</text>
</g>
<g class="stroked-text"><desc>13</desc>
<path d="M13.2029 24.9560
L13.2029 25.6817
" />
<path d="M13.2029 25.3189
L11.9329 25.3189
" />
<path d="M11.9329 25.3189
L12.1144 25.4398
" />
<path d="M12.1144 25.4398
L12.2353 25.5608
" />
<path d="M12.2353 25.5608
L12.2958 25.6817
" />
<path d="M11.9329 24.5327
L11.9329 23.7465
" />
<path d="M11.9329 23.7465
L12.4167 24.1699
" />
<path d="M12.4167 24.1699
L12.4167 23.9884
" />
<path d="M12.4167 23.9884
L12.4772 23.8675
" />
<path d="M12.4772 23.8675
L12.5377 23.8070
" />
<path d="M12.5377 23.8070
L12.6586 23.7465
" />
<path d="M12.6586 23.7465
L12.9610 23.7465
" />
<path d="M12.9610 23.7465
L13.0820 23.8070
" />
<path d="M13.0820 23.8070
L13.1425 23.8675
" />
<path d="M13.1425 23.8675
L13.2029 23.9884
" />
<path d="M13.2029 23.9884
L13.2029 24.3513
" />
<path d="M13.2029 24.3513
L13.1425 24.4722
" />
<path d="M13.1425 24.4722
L13.0820 24.5327
" />
</g></g>
<g style="fill:none; 
stroke:#006464; stroke-width:0.1524; stroke-opacity:1; 
stroke-linecap:round; stroke-linejoin:round;">
<text x="6.0004" y="4.5212"
textLength="3.0553" font-size="2.0320" lengthAdjust="spacingAndGlyphs"
text-anchor="middle" opacity="0" stroke-opacity="0">U?</text>
<g class="stroked-text"><desc>U?</desc>
<path d="M4.9118 2.9322
L4.9118 4.1659
" />
<path d="M4.9118 4.1659
L4.9844 4.3111
" />
<path d="M4.9844 4.3111
L5.0570 4.3837
" />
<path d="M5.0570 4.3837
L5.2021 4.4562
" />
<path d="M5.2021 4.4562
L5.4924 4.4562
" />
<path d="M5.4924 4.4562
L5.6375 4.3837
" />
<path d="M5.6375 4.3837
L5.7101 4.3111
" />
<path d="M5.7101 4.3111
L5.7827 4.1659
" />
<path d="M5.7827 4.1659
L5.7827 2.9322
" />
<path d="M6.7261 4.3111
L6.7987 4.3837
" />
<path d="M6.7987 4.3837
L6.7261 4.4562
" />
<path d="M6.7261 4.4562
L6.6536 4.3837
" />
<path d="M6.6536 4.3837
L6.7261 4.3111
" />
<path d="M6.7261 4.3111
L6.7261 4.4562
" />
<path d="M6.4358 3.0048
L6.5810 2.9322
" />
<path d="M6.5810 2.9322
L6.9438 2.9322
" />
<path d="M6.9438 2.9322
L7.0890 3.0048
" />
<path d="M7.0890 3.0048
L7.1616 3.1499
" />
<path d="M7.1616 3.1499
L7.1616 3.2951
" />
<path d="M7.1616 3.2951
L7.0890 3.4402
" />
<path d="M7.0890 3.4402
L7.0164 3.5128
" />
<path d="M7.0164 3.5128
L6.8713 3.5854
" />
<path d="M6.8713 3.5854
L6.7987 3.6579
" />
<path d="M6.7987 3.6579
L6.7261 3.8031
" />
<path d="M6.7261 3.8031
L6.7261 3.8757
" />
</g><text x="27.5904" y="27.3812"
textLength="12.5620" font-size="2.0320" lengthAdjust="spacingAndGlyphs"
text-anchor="middle" opacity="0" stroke-opacity="0">IR2110PBF</text>
<g class="stroked-text"><desc>IR2110PBF</desc>
<path d="M21.7484 27.3162
L21.7484 25.7922
" />
<path d="M23.3450 27.3162
L22.8370 26.5905
" />
<path d="M22.4741 27.3162
L22.4741 25.7922
" />
<path d="M22.4741 25.7922
L23.0547 25.7922
" />
<path d="M23.0547 25.7922
L23.1998 25.8648
" />
<path d="M23.1998 25.8648
L23.2724 25.9374
" />
<path d="M23.2724 25.9374
L23.3450 26.0825
" />
<path d="M23.3450 26.0825
L23.3450 26.3002
" />
<path d="M23.3450 26.3002
L23.2724 26.4454
" />
<path d="M23.2724 26.4454
L23.1998 26.5179
" />
<path d="M23.1998 26.5179
L23.0547 26.5905
" />
<path d="M23.0547 26.5905
L22.4741 26.5905
" />
<path d="M23.9255 25.9374
L23.9981 25.8648
" />
<path d="M23.9981 25.8648
L24.1433 25.7922
" />
<path d="M24.1433 25.7922
L24.5061 25.7922
" />
<path d="M24.5061 25.7922
L24.6513 25.8648
" />
<path d="M24.6513 25.8648
L24.7238 25.9374
" />
<path d="M24.7238 25.9374
L24.7964 26.0825
" />
<path d="M24.7964 26.0825
L24.7964 26.2277
" />
<path d="M24.7964 26.2277
L24.7238 26.4454
" />
<path d="M24.7238 26.4454
L23.8530 27.3162
" />
<path d="M23.8530 27.3162
L24.7964 27.3162
" />
<path d="M26.2478 27.3162
L25.3769 27.3162
" />
<path d="M25.8124 27.3162
L25.8124 25.7922
" />
<path d="M25.8124 25.7922
L25.6672 26.0099
" />
<path d="M25.6672 26.0099
L25.5221 26.1551
" />
<path d="M25.5221 26.1551
L25.3769 26.2277
" />
<path d="M27.6992 27.3162
L26.8283 27.3162
" />
<path d="M27.2638 27.3162
L27.2638 25.7922
" />
<path d="M27.2638 25.7922
L27.1186 26.0099
" />
<path d="M27.1186 26.0099
L26.9735 26.1551
" />
<path d="M26.9735 26.1551
L26.8283 26.2277
" />
<path d="M28.6426 25.7922
L28.7877 25.7922
" />
<path d="M28.7877 25.7922
L28.9329 25.8648
" />
<path d="M28.9329 25.8648
L29.0055 25.9374
" />
<path d="M29.0055 25.9374
L29.0780 26.0825
" />
<path d="M29.0780 26.0825
L29.1506 26.3728
" />
<path d="M29.1506 26.3728
L29.1506 26.7357
" />
<path d="M29.1506 26.7357
L29.0780 27.0259
" />
<path d="M29.0780 27.0259
L29.0055 27.1711
" />
<path d="M29.0055 27.1711
L28.9329 27.2437
" />
<path d="M28.9329 27.2437
L28.7877 27.3162
" />
<path d="M28.7877 27.3162
L28.6426 27.3162
" />
<path d="M28.6426 27.3162
L28.4975 27.2437
" />
<path d="M28.4975 27.2437
L28.4249 27.1711
" />
<path d="M28.4249 27.1711
L28.3523 27.0259
" />
<path d="M28.3523 27.0259
L28.2797 26.7357
" />
<path d="M28.2797 26.7357
L28.2797 26.3728
" />
<path d="M28.2797 26.3728
L28.3523 26.0825
" />
<path d="M28.3523 26.0825
L28.4249 25.9374
" />
<path d="M28.4249 25.9374
L28.4975 25.8648
" />
<path d="M28.4975 25.8648
L28.6426 25.7922
" />
<path d="M29.8037 27.3162
L29.8037 25.7922
" />
<path d="M29.8037 25.7922
L30.3843 25.7922
" />
<path d="M30.3843 25.7922
L30.5294 25.8648
" />
<path d="M30.5294 25.8648
L30.6020 25.9374
" />
<path d="M30.6020 25.9374
L30.6746 26.0825
" />
<path d="M30.6746 26.0825
L30.6746 26.3002
" />
<path d="M30.6746 26.3002
L30.6020 26.4454
" />
<path d="M30.6020 26.4454
L30.5294 26.5179
" />
<path d="M30.5294 26.5179
L30.3843 26.5905
" />
<path d="M30.3843 26.5905
L29.8037 26.5905
" />
<path d="M31.8357 26.5179
L32.0534 26.5905
" />
<path d="M32.0534 26.5905
L32.1260 26.6631
" />
<path d="M32.1260 26.6631
L32.1986 26.8082
" />
<path d="M32.1986 26.8082
L32.1986 27.0259
" />
<path d="M32.1986 27.0259
L32.1260 27.1711
" />
<path d="M32.1260 27.1711
L32.0534 27.2437
" />
<path d="M32.0534 27.2437
L31.9083 27.3162
" />
<path d="M31.9083 27.3162
L31.3277 27.3162
" />
<path d="M31.3277 27.3162
L31.3277 25.7922
" />
<path d="M31.3277 25.7922
L31.8357 25.7922
" />
<path d="M31.8357 25.7922
L31.9809 25.8648
" />
<path d="M31.9809 25.8648
L32.0534 25.9374
" />
<path d="M32.0534 25.9374
L32.1260 26.0825
" />
<path d="M32.1260 26.0825
L32.1260 26.2277
" />
<path d="M32.1260 26.2277
L32.0534 26.3728
" />
<path d="M32.0534 26.3728
L31.9809 26.4454
" />
<path d="M31.9809 26.4454
L31.8357 26.5179
" />
<path d="M31.8357 26.5179
L31.3277 26.5179
" />
<path d="M33.3597 26.5179
L32.8517 26.5179
" />
<path d="M32.8517 27.3162
L32.8517 25.7922
" />
<path d="M32.8517 25.7922
L33.5774 25.7922
" />
</g></g> 
</svg>
